<?xml version="1.0" encoding="UTF-8"?>
<svg width="22px" height="22px" viewBox="0 0 22 22" version="1.1" xmlns="http://www.w3.org/2000/svg" xmlns:xlink="http://www.w3.org/1999/xlink">
    <title>social_facebook-white</title>
    <g id="Page-2" stroke="none" stroke-width="1" fill="none" fill-rule="evenodd">
        <g id="social_facebook-white" fill="#FFFFFF" fill-rule="nonzero">
            <path d="M22,11 C22,4.92483 17.0752,0 11,0 C4.92483,0 0,4.92483 0,11 C0,16.1588 3.5515,20.4874 8.34267,21.676 L8.34267,14.3614 L6.07441,14.3614 L6.07441,11 L8.34267,11 L8.34267,9.5516 C8.34267,5.80754 10.037,4.07214 13.7128,4.07214 C14.4097,4.07214 15.6121,4.2088 16.104,4.34539 L16.104,7.39254 C15.8444,7.36524 15.3935,7.35151 14.8332,7.35151 C13.0295,7.35151 12.3327,8.03476 12.3327,9.8111 L12.3327,10.9999 L15.9257,10.9999 L15.3084,14.3614 L12.3327,14.3614 L12.3327,21.9194 C17.7793,21.2615 22,16.624 22,11 Z" id="Path"></path>
        </g>
    </g>
</svg>