<?xml version="1.0" encoding="UTF-8"?>
<svg width="22px" height="22px" viewBox="0 0 22 22" version="1.1" xmlns="http://www.w3.org/2000/svg" xmlns:xlink="http://www.w3.org/1999/xlink">
    <title>social_tiktok_white</title>
    <g id="Page-1" stroke="none" stroke-width="1" fill="none" fill-rule="evenodd">
        <g id="social_tiktok_white" fill="#FFFFFF">
            <path d="M11,0 C17.0750938,0 22,4.92490625 22,11 C22,17.0750938 17.0750938,22 11,22 C4.92490625,22 0,17.0750938 0,11 C0,4.92490625 4.92490625,0 11,0 Z M14.5636992,7.50878906 C13.9357539,7.09955469 13.4829492,6.44441016 13.3414531,5.68111328 C13.3102374,5.51345216 13.2943878,5.34329206 13.2941016,5.17275 L11.2904258,5.17275 L11.2872031,13.2026211 C11.2535586,14.1018711 10.5133789,14.8235742 9.60630859,14.8235742 C9.3339611,14.8236832 9.06570962,14.7572619 8.82487891,14.6300859 C8.28871484,14.3479961 7.92184766,13.7861367 7.92184766,13.139457 C7.92184766,12.2107305 8.67758203,11.4550391 9.60596484,11.4550391 C9.77934375,11.4550391 9.94571875,11.4836992 10.1029414,11.5327695 L10.1029414,9.48732813 C9.94013281,9.46511328 9.77466016,9.45140625 9.60596484,9.45140625 C7.57255469,9.45136328 5.91821484,11.1056602 5.91821484,13.139457 C5.91821484,14.3871406 6.54143359,15.4912656 7.49271875,16.158957 C8.09170313,16.5796641 8.82049609,16.82725 9.60630859,16.82725 C11.6397617,16.82725 13.2941016,15.1729531 13.2941016,13.139457 L13.2941016,9.06752344 C14.0799141,9.63144531 15.0428437,9.96380859 16.0817852,9.96380859 L16.0817852,7.96013281 C15.5222461,7.96013281 15.0010352,7.79384375 14.5636992,7.50878906 L14.5636992,7.50878906 Z" id="Shape"></path>
        </g>
    </g>
</svg>