<?xml version="1.0" encoding="UTF-8"?>
<svg width="24px" height="24px" viewBox="0 0 24 24" version="1.1" xmlns="http://www.w3.org/2000/svg" xmlns:xlink="http://www.w3.org/1999/xlink">
    <title>social_linkedin-white</title>
    <g id="social_linkedin-white" stroke="none" stroke-width="1" fill="none" fill-rule="evenodd">
        <g transform="translate(1.000000, 1.000000)" fill="#FFFFFF" fill-rule="nonzero" id="Shape">
            <path d="M11,0 C17.0751,0 22,4.92487 22,11 C22,17.0751 17.0751,22 11,22 C4.92487,22 0,17.0751 0,11 C0,4.92487 4.92487,0 11,0 Z M8.09245,8.51207 L5.46392,8.51207 L5.46392,16.4202 L8.09245,16.4202 L8.09245,8.51207 Z M14.5456,8.32638 C13.1485,8.32638 12.5253,9.095 12.1759,9.6327 L12.1759,8.51207 L9.5462,8.51207 C9.5549,8.6934 9.5593,9.2586 9.561,10.0092 L9.5617,10.4358 C9.5618,10.5095 9.5618,10.5845 9.5619,10.6606 L9.5619,11.1289 C9.5618,11.2087 9.5618,11.2894 9.5617,11.3706 L9.5611,11.8645 C9.5585,13.6949 9.5496,15.6893 9.547,16.2597 L9.5462,16.42 L12.1757,16.42 L12.1757,12.0034 C12.1757,11.7663 12.1936,11.5316 12.2628,11.3626 C12.4534,10.8896 12.885,10.4012 13.6115,10.4012 C14.5635,10.4012 14.9431,11.1267 14.9431,12.1891 L14.9431,16.4202 L17.5724,16.4202 L17.5724,11.8851 C17.5724,9.4566 16.2755,8.32638 14.5456,8.32638 Z M6.79554,4.70017 C5.89609,4.70017 5.30764,5.29058 5.30764,6.06629 C5.30764,6.82554 5.87903,7.43301 6.76103,7.43301 L6.77808,7.43301 C7.69518,7.43301 8.26539,6.82554 8.26539,6.06629 C8.24794,5.29058 7.69518,4.70017 6.79554,4.70017 Z"></path>
        </g>
    </g>
</svg>