<?xml version="1.0" encoding="UTF-8"?>
<svg width="24px" height="24px" viewBox="0 0 24 24" version="1.1" xmlns="http://www.w3.org/2000/svg" xmlns:xlink="http://www.w3.org/1999/xlink">
    <title>social_youtube-white</title>
    <g id="social_youtube-white" stroke="none" stroke-width="1" fill="none" fill-rule="evenodd">
        <g transform="translate(1.000000, 1.000000)" fill="#FFFFFF">
            <path d="M11,0 C17.0708,0 22,4.92262 22,11 C22,17.0708 17.0774,22 11,22 C4.92921,22 0,17.0774 0,11 C0,4.92921 4.92262,0 11,0 Z M11.079,6.6714 L10.9142,6.6714 C10.897,6.6714 10.8772,6.67151 10.8548,6.67159 L10.6918,6.67238 C9.9603,6.67663 8.05176,6.69721 6.69106,6.79664 C6.45351,6.82304 5.92562,6.82963 5.45711,7.31794 C5.08758,7.68746 4.96881,8.53869 4.96881,8.53869 C4.96881,8.53869 4.84343,9.5351 4.84343,10.5315 L4.84343,11.4619 C4.84343,12.4583 4.96881,13.4547 4.96881,13.4547 C4.96881,13.4547 5.08758,14.3059 5.45711,14.6755 C5.92562,15.1638 6.53929,15.1506 6.81644,15.2034 C7.76574,15.2926 10.7819,15.3264 10.9888,15.3286 L11.0335,15.3286 C11.0445,15.3286 11.0581,15.3285 11.0742,15.3284 L11.1996,15.3277 C11.8382,15.3234 13.8737,15.3023 15.3089,15.2034 C15.5465,15.177 16.0744,15.1704 16.5429,14.6821 C16.9124,14.3125 17.0312,13.4613 17.0312,13.4613 C17.0312,13.4613 17.1566,12.4649 17.1566,11.4685 L17.1566,10.5381 C17.1566,9.5417 17.0312,8.54529 17.0312,8.54529 L17.0246,8.53869 C17.0246,8.53869 16.9058,7.68746 16.5363,7.31794 C16.0678,6.82963 15.5399,6.82304 15.3023,6.79664 C13.9364,6.69721 12.0309,6.67663 11.3009,6.67238 L11.1382,6.67159 C11.1159,6.67151 11.0962,6.6714 11.079,6.6714 Z" id="Shape"></path>
            <polygon id="Path" points="9.7198 12.5969 9.7198 9.1392 13.0456 10.8746"></polygon>
        </g>
    </g>
</svg>