<?xml version="1.0" encoding="UTF-8"?><svg id="a" xmlns="http://www.w3.org/2000/svg" viewBox="0 0 72 72"><defs><style>.c{fill:#161d26;}</style></defs><path class="c" d="M26.54,12c2.3237,0,4.2139,1.8901,4.2139,4.2139,0,7.7861-2.9531,7.7861-4.2139,7.7861s-4.2144,0-4.2144-7.7861c0-2.3237,1.8906-4.2139,4.2144-4.2139M26.54,9c-3.9844,0-7.2144,3.23-7.2144,7.2139,0,8.2314,3.23,10.7861,7.2144,10.7861s7.2139-2.5547,7.2139-10.7861c0-3.9839-3.23-7.2139-7.2139-7.2139h0Z"/><rect class="c" x="61.4445" y="31.8365" width="3" height="6" rx="1.006" ry="1.006" transform="translate(17.7796 90.834) rotate(-80.0742)"/><rect class="c" x="51.6428" y="23.9498" width="3" height="6" rx="1.006" ry="1.006" transform="translate(112.2569 34.4317) rotate(160.3229)"/><rect class="c" x="57.2577" y="25.5002" width="8.4853" height="2.9997" rx="1" ry="1" transform="translate(-1.0789 51.3954) rotate(-45)"/><path class="c" d="M61.2783,44.0952l-4.9888-9.9419c-.3574-.7114-1.0742-1.1533-1.8706-1.1533h-15.2524c-1.2144-3.5537-4.4219-6-8.1157-6h-9.0342c-4.2036,0-7.7793,3.167-8.5024,7.5303l-2.938,17.7314c-.4321,2.6084.9683,5.0928,3.2568,5.7793,2.9814.8945,7.707,1.9648,13.2471,1.9648,3.8232,0,8.0347-.5098,12.3276-1.9385.1616-.0537.3154-.126.4688-.1987l3.603,3.8013c.3936.416.9473.6543,1.52.6543h.0005c.5723,0,1.1265-.2383,1.52-.6533l14.4062-15.2007c.6035-.6362.7451-1.5903.3521-2.375ZM57.623,43.5h-5.4912l-2.1431-7.5h3.8711l3.7632,7.5ZM33.2354,46.5h4.749l3.4683,8.6704-8.2173-8.6704ZM40.0112,36l-2.1426,7.5h-5.4917l3.7632-7.5h3.8711ZM40.9888,43.5l2.1431-7.5h3.7368l2.1431,7.5h-8.0229ZM48.7842,46.5l-3.7842,9.4609-3.7842-9.4609h7.5684ZM52.0156,46.5h4.749l-8.2168,8.6699,3.4678-8.6699ZM14.6953,55.168c-.8193-.2461-1.3394-1.3301-1.1597-2.416l2.938-17.7314c.4824-2.9092,2.8135-5.0205,5.543-5.0205h9.0342c2.0435,0,3.8633,1.1841,4.8516,3h-.3213c-.7964,0-1.5132.4419-1.8711,1.1543l-4.9883,9.9414c-.3931.7842-.2515,1.7383.3516,2.374l8.5371,9.0073c-9.4209,2.8589-18.3535,1.0596-22.915-.3091Z"/></svg>