<?xml version="1.0" encoding="UTF-8"?><svg id="a" xmlns="http://www.w3.org/2000/svg" viewBox="0 0 72 72"><defs><style>.c{fill:#161d26;}</style></defs><path class="c" d="M24.8976,30.75c-.1899-.52-.7603-.79-1.2803-.6104l-.9399.3301c-.52.1904-.79.7603-.6099,1.2803l3.6997,10.4399c.1904.52.7603.79,1.2803.6099l.9399-.3301c.52-.1899.79-.7598.6099-1.2798l-3.6997-10.4399Z"/><rect class="c" x="51.3996" y="15.4602" width="7.8199" height="3.0003" rx=".9998" ry=".9998" transform="translate(16.4596 59.8262) rotate(-64.8614)"/><path class="c" d="M58.4649,22.1214h5.8188c.5523,0,1.0007.4484,1.0007,1.0007v.9994c0,.5519-.4481,1-1,1h-5.8203c-.5517,0-.9996-.4479-.9996-.9996v-1.0001c0-.5521.4482-1.0003,1.0003-1.0003Z" transform="translate(-4.3747 22.2648) rotate(-19.8684)"/><rect class="c" x="59.4568" y="28.6999" width="3" height="7.82" rx=".9999" ry=".9999" transform="translate(5.5274 73.9224) rotate(-64.8431)"/><path class="c" d="M52.7726,32.2471c.5068-1.0576.5703-2.2495.1782-3.3594l-1.3882-3.9043c-.3877-1.1055-1.1826-1.9932-2.2378-2.4985-1.0581-.5063-2.2505-.5703-3.3569-.1792l-2.0625.729-4.4243-12.4761c-.4917-1.3853-1.7173-2.3301-3.2788-2.5273-1.7607-.2227-3.5264.5664-4.4609,1.957l-10.7974,14.6016-11.8076,4.1865c-.3159.1118-.585.3262-.7646.6089-.1367.2144-3.3101,5.3486-.4883,13.3062,2.8252,7.9658,8.5112,9.8877,8.752,9.9658.314.1016.6528.0967.9634-.0137l1.2129-.4297,4.1914,11.8159c.6357,1.7983,2.3311,2.9248,4.1387,2.9248.4839,0,.9761-.0806,1.4575-.251l3.6899-1.3101c.7803-.2773,1.1885-1.1338.9121-1.915l-5.1538-14.54,1.3594-.4814,17.5288,4.5195c.4287.1289.8701.1914,1.3101.1914,1.2764,0,2.543-.5249,3.4521-1.4795,1.0811-1.1357,1.4336-2.6387.9434-4.02l-4.418-12.458,2.0508-.7251c1.1055-.3877,1.9932-1.1826,2.4985-2.2383ZM29.8727,63.0684l-2.2749.8076c-.7192.2534-1.5117-.1255-1.7666-.8477l-4.1924-11.8174,3.5811-1.2695,4.6528,13.127ZM49.525,49.6196c-.3691.3882-1.0449.688-1.7832.4683l-18.0298-4.6504c-.123-.0317-.249-.0479-.3745-.0479-.1699,0-.3394.0293-.5015.0864l-11.6992,4.1484c-1.1909-.561-4.5171-2.5532-6.4258-7.936-1.9126-5.3936-.5903-9.0825-.0254-10.2783l11.6929-4.1465c.2817-.0996.5273-.2812.7051-.5215l11.1079-15.0244c.3931-.584,1.1064-.7783,1.6343-.7104.2471.0312.6826.145.8276.5542l13.1606,37.1104c.145.4082-.1191.769-.2891.9478ZM50.067,30.9512c-.1587.3311-.438.5811-.7896.7046l-2.0571.7271-2.312-6.5205,2.0591-.7275c.3506-.1245.7275-.104,1.061.0557.3315.1592.5815.4385.7056.792l1.3892,3.9072c.1235.3506.104.7275-.0562,1.0615Z"/></svg>