<?xml version="1.0" encoding="UTF-8"?><svg id="a" xmlns="http://www.w3.org/2000/svg" viewBox="0 0 72 72"><defs><style>.c,.d{fill:#161d26;}.d{opacity:.99;}</style></defs><path class="d" d="M56.0001,33h-14.5002c-1.3784,0-2.5-1.1216-2.5-2.5v-14.5c0-1.3784,1.1216-2.5,2.5-2.5h14.5002c1.3784,0,2.5,1.1216,2.5,2.5v14.5c0,1.3784-1.1216,2.5-2.5,2.5ZM41.9998,30h13.5002v-13.5h-13.5002v13.5Z"/><path class="d" d="M56.0001,58.5h-14.5c-1.3784,0-2.5-1.1216-2.5-2.5l-.0002-14.5c0-1.3784,1.1216-2.5,2.5-2.5h14.5002c1.3784,0,2.5,1.1216,2.5,2.5v14.5c0,1.3784-1.1216,2.5-2.5,2.5ZM42.0001,55.5h13.5v-13.5h-13.5002l.0002,13.5Z"/><path class="d" d="M30.5001,58.5h-14.5c-1.3784,0-2.5-1.1216-2.5-2.5v-14.5c0-1.3784,1.1216-2.5,2.5-2.5h14.5c1.3784,0,2.5,1.1216,2.5,2.5v14.5c0,1.3784-1.1216,2.5-2.5,2.5ZM16.5001,55.5h13.5v-13.5h-13.5v13.5Z"/><path class="d" d="M30.3751,34.8804h-14.25c-2.4812,0-4.5-2.0186-4.5-4.5v-14.2607c0-2.4814,2.0188-4.5,4.5-4.5h14.25c2.4812,0,4.5,2.0186,4.5,4.5v14.2607c0,2.4814-2.0188,4.5-4.5,4.5ZM16.1251,14.6196c-.8271,0-1.5.6729-1.5,1.5v14.2607c0,.8271.6729,1.5,1.5,1.5h14.25c.8271,0,1.5-.6729,1.5-1.5v-14.2607c0-.8271-.6729-1.5-1.5-1.5h-14.25Z"/><path class="c" d="M28.25,21.75h-2.5c-.5523,0-1-.4477-1-1v-2.5c0-.5523-.4477-1-1-1h-1c-.5523,0-1,.4477-1,1v2.5c0,.5523-.4477,1-1,1h-2.5c-.5523,0-1,.4477-1,1v1c0,.5523.4477,1,1,1h2.5c.5523,0,1,.4477,1,1v2.5c0,.5523.4477,1,1,1h1c.5523,0,1-.4477,1-1v-2.5c0-.5523.4477-1,1-1h2.5c.5523,0,1-.4477,1-1v-1c0-.5523-.4477-1-1-1Z"/></svg>