<?xml version="1.0" encoding="UTF-8"?>
<svg width="24px" height="18px" viewBox="0 0 24 18" version="1.1" xmlns="http://www.w3.org/2000/svg" xmlns:xlink="http://www.w3.org/1999/xlink">
    <title>Icon / Flags / Australia</title>
    <defs>
        <path d="M2.28571429,0 L21.7142857,0 C22.9766509,0 24,1.0745166 24,2.4 L24,15.6 C24,16.9254834 22.9766509,18 21.7142857,18 L2.28571429,18 C1.02334914,18 0,16.9254834 0,15.6 L0,2.4 C0,1.0745166 1.02334914,0 2.28571429,0 Z" id="path-1"></path>
    </defs>
    <g id="Icon-/-Flags-/-Australia" stroke="none" stroke-width="1" fill="none" fill-rule="evenodd">
        <g id="Australia">
            <g id="Group">
                <mask id="mask-2" fill="white">
                    <use xlink:href="#path-1"></use>
                </mask>
                <use id="Mask" fill="#43458B" fill-rule="nonzero" xlink:href="#path-1"></use>
                <g mask="url(#mask-2)" fill-rule="nonzero" id="Shape">
                    <path d="M5.09518477,4 L13,9 L10.4232923,9 L5.09518477,5.63101604 L0,8.83957219 L0,7.20855615 L5.09518477,4 Z M2.57670773,0 L7.90481523,3.36898396 L13,0.160427807 L13,1.79144385 L7.90481523,5 L0,0 L2.57670773,0 Z" fill="#FAFAFA"></path>
                    <path d="M12.87,9 L7.58333333,5.62634409 L2.29666667,9 L0,9 L0,8.83870968 L7.58333333,4 L13,7.45430108 L13,9 L12.87,9 Z M0.13,0 L5.41666667,3.37365591 L10.7033333,0 L13,0 L13,0.161290323 L5.41666667,5 L0,1.54569892 L0,0 L0.13,0 Z" fill="#E25950"></path>
                </g>
            </g>
            <polygon id="Path" fill="#FAFAFA" fill-rule="nonzero" points="13 5.95285714 8.13222222 5.95285714 8.13222222 9 4.88222222 9 4.88222222 5.95285714 0 5.95285714 0 3.06 4.88222222 3.06 4.88222222 0 8.13222222 0 8.13222222 3.06 13 3.06 13 5.95285714"></polygon>
            <polygon id="Path" fill="#E25950" fill-rule="nonzero" points="13 5.14285714 7.22222222 5.14285714 7.22222222 9 5.77777778 9 5.77777778 5.14285714 0 5.14285714 0 3.85714286 5.77777778 3.85714286 5.77777778 0 7.22222222 0 7.22222222 3.85714286 13 3.85714286"></polygon>
            <path d="M20.9866671,8 C20.436178,7.99265916 19.9951626,7.54172583 20.0000401,6.99118475 C20.0049175,6.44064367 20.453853,5.99759544 21.0043857,6 C21.5549185,6.0024242 21.9999511,6.44939297 22,6.99995565 C21.9927042,7.55441488 21.5411495,8.000048 20.9866671,8 L20.9866671,8 Z" id="Path" fill="#FAFAFA" fill-rule="nonzero"></path>
            <path d="M19.5,9.99993348 C19.2238576,9.99993348 19,9.77607586 19,9.49993348 C19,9.22379111 19.2238576,8.99993348 19.5,8.99993348 C19.7761424,8.99993348 20,9.22379111 20,9.49993348 C20,9.77607586 19.7761424,9.99993348 19.5,9.99993348 Z" id="Path" fill="#FAFAFA" fill-rule="nonzero"></path>
            <path d="M18,4 C17.4477153,4 17,3.55228475 17,3 C17,2.44771525 17.4477153,2 18,2 C18.5522847,2 19,2.44771525 19,3 C18.9927042,3.55443464 18.5411493,4.000048 17.9866667,4 L18,4 Z" id="Path" fill="#FAFAFA" fill-rule="nonzero"></path>
            <path d="M16,10 C15.4477153,10 15,9.55228475 15,9 C15,8.44771525 15.4477153,8 16,8 C16.5522847,8 17,8.44771525 17,9 C16.9927042,9.55443464 16.5411493,10.000048 15.9866667,10 L16,10 Z" id="Path" fill="#FAFAFA" fill-rule="nonzero"></path>
            <path d="M18,14 C18.5522847,14 19,14.4477153 19,15 C19,15.5522847 18.5522847,16 18,16 C17.4477153,16 17,15.5522847 17,15 C16.9999514,14.4528806 17.4395959,14.0072949 17.9866667,14 L18,14 Z" id="Path" fill="#FAFAFA" fill-rule="nonzero"></path>
        </g>
        <path d="M6.44154282,15.0130075 L5.56464064,15.6448155 C5.51983146,15.6771005 5.45733427,15.6669477 5.42504926,15.6221385 C5.41375708,15.6064658 5.40724592,15.587858 5.40630273,15.568564 L5.35353053,14.4890484 C5.35142949,14.4460693 5.32206967,14.4092532 5.28063562,14.3976411 L4.23992869,14.1059772 C4.18674919,14.0910734 4.15572064,14.0358809 4.17062449,13.9827014 C4.17583734,13.964101 4.18632589,13.9474086 4.20082246,13.9346416 L5.01191878,13.2203157 C5.04421126,13.191876 5.05468966,13.1459671 5.03793467,13.1063326 L4.61709653,12.1108257 C4.59559195,12.0599559 4.61939718,12.0012849 4.67026699,11.9797803 C4.68805949,11.9722587 4.70764966,11.9700514 4.72666976,11.9734252 L5.79086253,12.1621909 C5.83323163,12.1697063 5.87565781,12.149275 5.89619874,12.1114637 L6.41212909,11.1617508 C6.43849282,11.113221 6.499206,11.0952519 6.54773576,11.1216156 C6.56470979,11.1308368 6.57864979,11.1447768 6.58787091,11.1617508 L7.10380126,12.1114637 C7.12434219,12.149275 7.16676837,12.1697063 7.20913747,12.1621909 L8.27333024,11.9734252 C8.32770985,11.9637794 8.37961272,12.0000433 8.38925854,12.0544229 C8.39263231,12.073443 8.39042503,12.0930332 8.38290347,12.1108257 L7.96206533,13.1063326 C7.94531034,13.1459671 7.95578874,13.191876 7.98808122,13.2203157 L8.79917754,13.9346416 C8.84062408,13.9711432 8.84463273,14.0343327 8.8081311,14.0757792 C8.79536409,14.0902758 8.77867166,14.1007644 8.76007131,14.1059772 L7.71936438,14.3976411 C7.67793033,14.4092532 7.64857051,14.4460693 7.64646947,14.4890484 L7.59369727,15.568564 C7.59100064,15.6237266 7.54409647,15.6662587 7.48893387,15.663562 C7.4696399,15.6626189 7.45103206,15.6561077 7.43535936,15.6448155 L6.55845718,15.0130075 C6.52354475,14.9878531 6.47645525,14.9878531 6.44154282,15.0130075 Z" id="Star" fill="#FAFAFA"></path>
    </g>
</svg>