<?xml version="1.0" encoding="UTF-8"?><svg id="a" xmlns="http://www.w3.org/2000/svg" viewBox="0 0 72 72"><defs><style>.c{fill:#161d26;}</style></defs><path class="c" d="M33.0701,28.5703c5.0468,0,7.5,2.4531,7.5,7.5s-2.4532,7.5-7.5,7.5-7.5-2.4531-7.5-7.5,2.4532-7.5,7.5-7.5M33.0701,25.5703c-6.7231,0-10.5,3.7769-10.5,10.5s3.7769,10.5,10.5,10.5,10.5-3.7769,10.5-10.5-3.7767-10.5-10.5-10.5h0Z"/><path class="c" d="M67.5703,20.3223c0-7.9854-4.7666-12.752-12.75-12.752-6.688,0-11.1055,3.355-12.3672,9.1348-.7344-.3604-1.4819-.6914-2.2505-.9648l-.9438-5.6631c-.2422-1.4526-1.4868-2.5068-2.9595-2.5068h-6.4585c-1.4727,0-2.7168,1.0537-2.959,2.5068l-.937,5.6182c-2.1587.748-4.168,1.8267-5.9805,3.2095l-5.7227-2.144c-1.3779-.5156-2.9136.0342-3.6504,1.3096l-3.229,5.5933c-.7363,1.2749-.4458,2.8804.6914,3.8159l4.0806,3.3599c-.4209,1.6963-.6343,3.4312-.6343,5.1606,0,1.125.0894,2.2578.2656,3.3721l-4.6021,3.7886c-1.1367.936-1.4277,2.5405-.6914,3.8159l3.2295,5.5933c.7363,1.2759,2.2715,1.8262,3.6509,1.3091l5.2104-1.9521c2.1479,1.9492,4.6206,3.418,7.3579,4.3706l.9609,5.7661c.2422,1.4521,1.4863,2.5068,2.959,2.5068h6.4585c1.4727,0,2.7173-1.0547,2.9595-2.5068l.9688-5.8115c2.7373-.979,5.2993-2.5449,7.4419-4.5474l5.1187,1.9175c1.3784.5166,2.9141-.0337,3.6509-1.3091l3.229-5.5938c.7363-1.2754.4453-2.8804-.6914-3.8159l-4.7026-3.8716c.1499-1.0308.2261-2.0493.2261-3.0317,0-.9888-.0747-1.9746-.2085-2.9502.1772.0049.3477.0205.5288.0205,7.9834,0,12.75-4.7656,12.75-12.748ZM54.8203,10.5703c6.3784,0,9.75,3.3721,9.75,9.752s-3.3716,9.748-9.75,9.748-9.75-3.3711-9.75-9.748,3.3716-9.752,9.75-9.752ZM51.5,36c0,.9136-.0776,1.8691-.2314,2.8394-.1387.876.1973,1.7671.8755,2.3247l4.9258,4.0557-3.229,5.5928-5.4185-2.0293c-.9048-.3394-1.9043-.1299-2.6094.5474-1.9443,1.8706-4.3066,3.3159-6.832,4.1792-.875.2988-1.5122,1.0449-1.6626,1.9478l-1.019,6.1128h-6.4585l-1.0117-6.0703c-.1523-.9102-.7964-1.6592-1.6812-1.9541-2.5327-.8438-4.8076-2.1953-6.7622-4.0186-.7021-.6543-1.6909-.854-2.5801-.52l-5.5059,2.0625-3.2295-5.5933,4.8301-3.9766c.688-.5664,1.0205-1.4688.8682-2.3555-.1782-1.0371-.2686-2.0947-.2686-3.1445,0-1.5757.2065-3.1577.6133-4.7017.249-.9448-.0728-1.9526-.8203-2.5679l-4.3325-3.5669,3.229-5.5933,5.9922,2.2451c.8188.3066,1.7202.1646,2.4141-.3799,1.6738-1.3115,3.5488-2.3164,5.5742-2.9878.8867-.2944,1.5317-1.0435,1.6836-1.9546l.9873-5.9229h6.459l.9941,5.9658c.1504.9043.7886,1.6504,1.6646,1.9482,1.083.3682,2.1279.855,3.1274,1.4199-.0029.1406-.0156.2749-.0156.418,0,6.6782,3.3457,11.0923,9.1113,12.3604.1973,1.0903.3184,2.2007.3184,3.3174Z"/><path class="c" d="M60.3445,13.5456l-.8563-.5161c-.4731-.2852-1.0876-.1328-1.3727.3403l-3.2856,5.4536-3.3075-5.458c-.2861-.4722-.9011-.623-1.3734-.3369l-.8551.5181c-.4723.2861-.623.9014-.3369,1.3735l2.2247,3.6719h-.1267c-.5524,0-1,.4473-1,1v1c0,.5522.4476,1,1,1h1.9445l.3339.5508v.0225h-2.2783c-.5524,0-1,.4478-1,1v1c0,.5522.4476,1,1,1h2.2783v1.5913c0,.5522.4476,1,1,1h1c.5522,0,1-.4478,1-1v-1.5913h2.251c.5522,0,1-.4478,1-1v-1c0-.5522-.4478-1-1-1h-2.251v-.0244l.3308-.5488h1.9202c.5522,0,1-.4478,1-1v-1c0-.5527-.4478-1-1-1h-.1127l2.2134-3.6738c.2849-.4731.1326-1.0874-.3405-1.3726Z"/></svg>