<?xml version="1.0" encoding="UTF-8"?><svg id="a" xmlns="http://www.w3.org/2000/svg" viewBox="0 0 72 72"><defs><style>.c{fill:#161d26;}</style></defs><path class="c" d="M55.5386,33.2241c-.0386-.0239-.082-.0356-.1226-.0557l.0054-.0103-13.356-6.6777c-.4937-.2471-1.0942-.0469-1.3413.4473l-.4473.8945c-.2471.4941-.0469,1.0947.4468,1.3418l10.6724,5.3359-5.8979,2.9492-15.3955-7.6978,1.1743-.5874c.4941-.2471.6943-.8477.4473-1.3418l-.4473-.8945c-.2471-.4941-.8477-.6943-1.3418-.4473l-13.3555,6.6777.0049.0103c-.0405.02-.084.0317-.123.0557-.4419.2729-.7114.7563-.7114,1.2759v20.625c0,.5684.3213,1.0879.8291,1.3418l18.75,9.375c.0576.0283.1187.0435.1782.0645.0391.0137.0762.0312.1162.0415.124.0327.25.0522.3765.0522.127,0,.2529-.0195.377-.0522.0396-.0103.0767-.0278.1157-.0415.0596-.021.1211-.0361.1782-.0645l18.75-9.375c.5083-.2539.8291-.7734.8291-1.3418v-20.625c0-.5195-.269-1.0029-.7114-1.2759ZM42.144,39.126l-6.144,3.0723-15.3955-7.6982,6.1436-3.0718,15.396,7.6978ZM18.75,36.9268l15.75,7.875v17.2715l-15.75-7.875v-17.2715ZM53.25,54.1982l-15.75,7.875v-17.2715l6.375-3.187v7.2173c0,.7432.7822,1.2271,1.4473.8945l1-.5c.3389-.1694.5527-.5156.5527-.8945v-7.4985h0v-.7192l6.375-3.1875v17.2715Z"/><path class="c" d="M27.3662,16.8501c.394.3867,1.0269.3813,1.4141-.0127l5.7197-5.8228v11.9854c0,.5522.4478,1,1,1h1c.5522,0,1-.4478,1-1v-11.7764l5.7441,5.6455c.394.3872,1.0273.3813,1.4141-.0122l.7017-.7144c.3872-.3936.3818-1.0269-.0122-1.4141l-8.4453-8.2983c-.5908-.5806-1.5405-.5723-2.1211.0186l-8.1411,8.2866c-.3872.394-.3818,1.0273.0127,1.4146l.7134.7002Z"/></svg>