<?xml version="1.0" encoding="UTF-8"?><svg id="a" xmlns="http://www.w3.org/2000/svg" viewBox="0 0 72 72"><defs><style>.c{fill:#161d26;}</style></defs><path class="c" d="M62.9014,42.8486l-6.2183-9.1196c-.2793-.4097-.7432-.6548-1.2393-.6548H16.5669c-.4961,0-.96.2451-1.2393.6548l-6.2183,9.1196c-.313.4595-.3467,1.0547-.0869,1.5459.2598.4917.7705.7993,1.3262.7993h4.7031v7.1914c-.0005.0105-.0034.0203-.0034.0308v6.7378c0,2.2056,1.7944,4,4,4h33.8955c2.2056,0,4-1.7944,4-4v-7.2051c0-.011-.0029-.0212-.0029-.0322v-6.7227h4.7212c.5562,0,1.0664-.3076,1.3262-.7993.2598-.4912.2266-1.0864-.0869-1.5459ZM17.3599,36.0742h15.8623l-4.0278,6.1196H13.187l4.1729-6.1196ZM18.0483,59.1538v-6.7378c0-.0107-.0029-.0208-.0029-.0315v-7.1907h11.957c.5049,0,.9756-.2539,1.2529-.6753l3.2534-4.9421v20.5774h-15.4604c-.5513,0-1-.4487-1-1ZM53.9473,51.9185c-.0005.0103-.0034.02-.0034.0303v7.2051c0,.5513-.4482,1-1,1h-15.4414v-20.5774l3.2529,4.9421c.2778.4214.7485.6753,1.2529.6753h11.939v6.7246ZM42.8169,42.1938l-4.0283-6.1196h15.8628l4.1724,6.1196h-16.0068Z"/><path class="c" d="M36,27c6.6733,0,10.5005-3.8271,10.5005-10.5005s-3.8271-10.4995-10.5005-10.4995-10.4995,3.8271-10.4995,10.4995,3.8271,10.5005,10.4995,10.5005ZM36,9c5.0474,0,7.5005,2.4531,7.5005,7.4995s-2.4531,7.5005-7.5005,7.5005-7.4995-2.4536-7.4995-7.5005,2.4531-7.4995,7.4995-7.4995Z"/><path class="c" d="M32.9526,19.7944c.4819.5527,1.1821.8635,1.9155.8574.0127,0,.0254-.0002.0381-.0007.749-.0198,1.4434-.3696,1.9067-.9612l4.2271-5.4126c.3408-.436.2632-1.0654-.1729-1.4058l-.7896-.616c-.436-.3401-1.0649-.2625-1.4048.1731l-3.8545,4.9351-1.3247-1.5178c-.3633-.4167-.9961-.4597-1.4126-.0959l-.7544.6582c-.4165.3638-.4595.9961-.0957,1.4126l1.7217,1.9736Z"/></svg>