<?xml version="1.0" encoding="UTF-8"?><svg id="a" xmlns="http://www.w3.org/2000/svg" viewBox="0 0 72 72"><defs><style>.c{fill:#161d26;}</style></defs><path class="c" d="M67.3188,42.8604l-7.4399-13.5c-.2642-.4785-.7671-.7764-1.314-.7764H13.4453c-.5464,0-1.0493.2969-1.3135.7754l-7.4497,13.5c-.2568.4648-.2485,1.0303.0215,1.4873.2695.457.7607.7373,1.2915.7373h6v13.5c0,2.4814,2.019,4.5,4.5,4.5h39c2.4814,0,4.5-2.0186,4.5-4.5v-13.5h6.0103c.5303,0,1.0215-.2803,1.2915-.7368.2695-.4565.2783-1.022.022-1.4868ZM8.5361,42.084l5.7944-10.5h19.1318l-5.8022,10.5H8.5361ZM34.5054,60.084h-18.0103c-.8271,0-1.5-.6729-1.5-1.5v-13.5h13.5498c.5459,0,1.0488-.2964,1.313-.7744l4.6475-8.4092v24.1836ZM56.9951,58.584c0,.8271-.6729,1.5-1.5,1.5h-17.9897v-24.1772l4.6367,8.4023c.2637.478.7666.7749,1.313.7749h13.54v13.5ZM44.3408,42.084l-5.7944-10.5h19.1328l5.7866,10.5h-19.125Z"/><path class="c" d="M30.4692,15.4717l-.439,2.6118c-.1582.9419.2231,1.8755.9956,2.4365.7715.561,1.7773.6357,2.6255.1948l2.3486-1.2246,2.3491,1.2251c.3667.1909.7632.2852,1.1572.2852.5166,0,1.0303-.1621,1.4683-.4805.772-.5615,1.1533-1.4951.9951-2.4365l-.439-2.6118,1.8901-1.8555c.6821-.6685.9224-1.6484.627-2.5566-.2949-.9082-1.0649-1.5596-2.0098-1.7007l-2.6196-.3892-1.1807-2.3716c-.4253-.855-1.2827-1.3862-2.2378-1.3862s-1.8125.5312-2.2378,1.3862l-1.1807,2.3716-2.6201.3892c-.9443.1411-1.7144.7925-2.0093,1.7007-.2954.9082-.0547,1.8882.6265,2.5562l1.8906,1.856ZM33.7651,11.8262l.8291-.168,1.4058-2.8237,1.0625,2.1338.4136.7451,3.127.4653-1.7026,1.6714-.5791.6235.5234,3.1167-2.1079-1.0996-.7749-.3643-2.8066,1.4639.3945-2.3506.1035-.8462-2.2563-2.2148,2.3682-.3525Z"/><rect class="c" x="46.0176" y="13.4553" width="8.9998" height="2.9998" rx=".9897" ry=".9897" transform="translate(12.306 51.2259) rotate(-59.9983)"/><rect class="c" x="53.1634" y="20.7936" width="8.9999" height="3" rx=".9899" ry=".9899" transform="translate(-3.4191 31.8329) rotate(-30.0136)"/><rect class="c" x="12.987" y="17.7937" width="3" height="8.9998" rx=".9899" ry=".9899" transform="translate(-12.0633 23.693) rotate(-60.0003)"/><rect class="c" x="20.0041" y="10.4554" width="2.9998" height="8.9998" rx=".9902" ry=".9902" transform="translate(-4.5967 12.7564) rotate(-30.0017)"/></svg>