<?xml version="1.0" encoding="UTF-8"?>
<svg id="_图层_2" data-name="图层 2" xmlns="http://www.w3.org/2000/svg" xmlns:xlink="http://www.w3.org/1999/xlink" viewBox="0 0 72 72">
  <defs>
    <style>
      .cls-1 {
        clip-path: url(#clippath);
      }

      .cls-2, .cls-3 {
        stroke-width: 0px;
      }

      .cls-2, .cls-4 {
        fill: none;
      }

      .cls-3 {
        fill: #161d26;
      }

      .cls-4 {
        stroke: #161d26;
        stroke-linecap: round;
        stroke-linejoin: round;
        stroke-width: 3px;
      }
    </style>
    <clipPath id="clippath">
      <rect class="cls-2" width="72" height="72"/>
    </clipPath>
  </defs>
  <g id="Layer_1" data-name="Layer 1">
    <g class="cls-1">
      <g>
        <rect class="cls-4" x="32.22" y="4.5" width="7.13" height="10.15" rx="3.57" ry="3.57"/>
        <path class="cls-4" d="M54.93,16.2s2.12,10.8-8.18,12.3v17.19s-21.47,4.79-21.47-17.19c0,0-9.93.53-8.71-12.48l38.36.19Z"/>
        <g>
          <line class="cls-4" x1="28.9" y1="41.76" x2="27.33" y2="56.21"/>
          <line class="cls-4" x1="43.03" y1="46.5" x2="44.24" y2="55.5"/>
        </g>
        <g>
          <line class="cls-4" x1="32.9" y1="44.08" x2="32.9" y2="55.73"/>
          <line class="cls-4" x1="38.67" y1="46.05" x2="38.67" y2="55.73"/>
        </g>
        <rect class="cls-3" x="14.52" y="63" width="42.53" height="3" rx="1" ry="1"/>
        <polyline class="cls-4" points="49.03 64.5 46.99 57 34.77 57 36.8 57 24.58 57 22.54 64.5"/>
        <path class="cls-4" d="M16.52,22.14h-4.02c-1.21,0-2.21-1.12-2.21-2.5h0c0-1.37.99-2.5,2.21-2.5h4.05"/>
        <path class="cls-4" d="M55.48,22.14h4.02c1.21,0,2.21-1.12,2.21-2.5h0c0-1.37-.99-2.5-2.21-2.5h-4.05"/>
        <path class="cls-4" d="M36.88,16.78h5.51v18.15c0,1.42-1.15,2.57-2.57,2.57h-.36c-1.42,0-2.57-1.15-2.57-2.57v-18.15h0Z"/>
      </g>
    </g>
  </g>
</svg>