<?xml version="1.0" encoding="UTF-8"?><svg id="a" xmlns="http://www.w3.org/2000/svg" viewBox="0 0 72 72"><defs><style>.c{fill:#161d26;}</style></defs><circle class="c" cx="22.5" cy="29.9999" r="3"/><path class="c" d="M48.4663,24.6437c.4814.5518,1.1807.8623,1.9131.8562.0127,0,.0254-.0002.0381-.0007.748-.0195,1.4414-.3691,1.9043-.96l4.2222-5.406c.3398-.4353.2627-1.0642-.1729-1.4041l-.7886-.6152c-.4355-.3396-1.0635-.2622-1.4033.1729l-3.8496,4.9292-1.3228-1.5161c-.3633-.416-.9951-.459-1.4111-.0957l-.7534.6572c-.416.3633-.459.9949-.0957,1.4109l1.7197,1.9714Z"/><path class="c" d="M62.9688,17.8534c.0918-1.5527-.6455-3.0681-1.9243-3.9551-9.3525-6.4883-17.2573-2.1292-20.2207.0457-1.1328.8308-1.814,2.1711-1.8232,3.5852-.0156,2.3992.4194,4.5476,1.1089,6.4707h-8.6094l-8.293-8.293c-.1953-.1953-.4512-.2927-.707-.2927-.2563,0-.5122.0974-.707.2927l-10.4146,10.4143c-.5625.5625-.8784,1.3257-.8784,2.1213v16.7573c0,1.657,1.3433,3,3,3h13.5v12.3c0,1.5393.9316,2.7,2.167,2.7h28.6665c1.2354,0,2.1665-1.1606,2.1665-2.7V27.4962c2.292-3.9404,2.853-7.676,2.9688-9.6428ZM42.5981,16.3629h0c1.4858-1.0906,4.4785-2.8445,8.3403-2.8445,2.4937,0,5.3496.7314,8.396,2.8447.4248.2947.6699.7983.6396,1.314-.106,1.8008-.6411,5.3206-2.9604,8.9622-.2549.3984-.5254.7876-.8101,1.1685-.1455.1958-.2959.3911-.4526.5864-.3638.45-.7412.8916-1.1484,1.3145-.1108.116-.2373.229-.353.3442-.3657.3621-.7466.7144-1.144,1.0549-.1489.1282-.2983.2561-.4541.3826-.5288.4292-1.0742.8472-1.6558,1.2393-1.5405-1.001-5.1372-3.666-7.2759-7.9053l-.1992-.395c-.9243-1.9661-1.5371-4.2573-1.52-6.8806.0029-.4702.2266-.9136.5977-1.1858ZM27,28.1998v16.8h-13.5l-.0005-16.7573,8.9995-8.9993,5.3203,5.3264c-.5015.4856-.8193,1.24-.8193,2.1301v1.5ZM57,31.5504v28.4495h-27v-31.801c.0005-.6597.2998-1.199.6665-1.199h10.8135c.2002.355.4077.6965.6221,1.03.0098.0149.019.0298.0288.0444.8594,1.3291,1.8101,2.4883,2.7612,3.4746.0176.0181.0347.0371.0518.0547.2031.2095.4033.408.6045.6016.0713.0693.1421.137.2134.2041.1772.167.3521.3298.5259.4846.1001.0896.1973.1724.2959.2578.1484.1282.2974.2593.4414.3784.2334.1931.459.3733.6772.5417.0796.0615.1519.1145.2295.1726.167.1262.3286.2466.4829.3574.0659.0471.1274.0903.1904.135.1646.1155.3184.2217.4639.3186.04.0266.0796.0535.1177.0789.6411.4224,1.0654.655,1.1274.6882l.7642.4087.7358-.458c.166-.1033.3203-.2156.4829-.3215.0244-.0146.0518-.0195.0757-.0349.1284-.0842.2402-.1741.3662-.2593.3096-.2107.6143-.425.9111-.6453.2007-.1492.3979-.2986.5903-.4497.2808-.2209.5532-.4475.8218-.6775.1758-.1506.3521-.3005.52-.4529.2686-.2432.5259-.4934.7803-.7456.1426-.1411.2886-.2812.4243-.4233.0693-.0723.145-.1399.2134-.2129Z"/><rect class="c" x="33.019" y="41.9999" width="17.981" height="2.9939" rx="1" ry="1"/><rect class="c" x="33" y="48.0062" width="14.981" height="2.9937" rx="1" ry="1"/><path class="c" d="M33.9944,35.9999h9.9866c.549,0,.9946.4457.9946.9946v1.0049c0,.5488-.4456.9944-.9944.9944h-9.9871c-.5487,0-.9941-.4455-.9941-.9941v-1.0054c0-.5488.4456-.9944.9944-.9944Z"/></svg>