<?xml version="1.0" encoding="UTF-8"?><svg id="a" xmlns="http://www.w3.org/2000/svg" viewBox="0 0 72 72"><defs><style>.c{fill:#161d26;}</style></defs><path class="c" d="M68.5439,15.9512c0-7.9844-4.7666-12.752-12.75-12.752-5.2715,0-9.1284,2.0898-11.1484,5.8008h-28.1455c-2.481,0-4.5,2.0186-4.5,4.5v45c0,2.4814,2.019,4.5,4.5,4.5h36c2.4814,0,4.5-2.0186,4.5-4.5v-29.8467c7.252-.4629,11.5439-5.1323,11.5439-12.7021ZM45,23.5303v3.4697h-21v-6h19.8174c.3081.9165.6982,1.7656,1.1826,2.5303ZM52.5,60H16.5c-.8271,0-1.5-.6729-1.5-1.5V13.5c0-.8271.6729-1.5,1.5-1.5h26.9971c-.2949,1.2104-.4531,2.5273-.4531,3.9512,0,.7119.0513,1.3892.126,2.0488h-19.1699c-1.6543,0-3,1.3457-3,3v6c0,1.6543,1.3457,3,3,3h21c1.6543,0,3-1.3457,3-3v-.4077c1.6401,1.0962,3.6553,1.7822,6,2.0112v29.8965c0,.8271-.6729,1.5-1.5,1.5ZM55.7939,25.6992c-3.5527,0-6.1699-1.0488-7.7939-3.0776v-.1216h-.0947c-1.229-1.6035-1.8613-3.7939-1.8613-6.5488,0-6.3799,3.3711-9.752,9.75-9.752s9.75,3.3721,9.75,9.752-3.3711,9.748-9.75,9.748Z"/><rect class="c" x="21" y="51.0063" width="6.0024" height="2.9937" rx="1" ry="1"/><rect class="c" x="21" y="33" width="6.0024" height="2.9937" rx="1" ry="1"/><rect class="c" x="41.9976" y="33" width="6.0024" height="2.9937" rx="1" ry="1"/><rect class="c" x="31.5" y="33.0063" width="6.0024" height="2.9937" rx="1" ry="1"/><rect class="c" x="21" y="39" width="6.0024" height="2.9937" rx="1" ry="1"/><rect class="c" x="41.9976" y="39" width="6.0024" height="2.9937" rx="1" ry="1"/><rect class="c" x="31.5" y="39.0063" width="6.0024" height="2.9937" rx="1" ry="1"/><rect class="c" x="21" y="45" width="6.0024" height="2.9937" rx="1" ry="1"/><rect class="c" x="41.9976" y="45" width="6.0024" height="2.9937" rx="1" ry="1"/><rect class="c" x="31.5" y="45.0063" width="6.0024" height="2.9937" rx="1" ry="1"/><rect class="c" x="31.5005" y="51" width="16.5" height="3" rx="1" ry="1"/><path class="c" d="M61.3182,9.1747l-.8563-.5161c-.4731-.2852-1.0876-.1328-1.3727.3403l-3.2856,5.4536-3.3075-5.458c-.2861-.4722-.9011-.623-1.3734-.3369l-.8551.5181c-.4723.2861-.623.9014-.3369,1.3735l2.2247,3.6719h-.1267c-.5524,0-1,.4473-1,1v1c0,.5522.4476,1,1,1h1.9445l.3339.5508v.0225h-2.2783c-.5524,0-1,.4478-1,1v1c0,.5522.4476,1,1,1h2.2783v1.5913c0,.5522.4476,1,1,1h1c.5522,0,1-.4478,1-1v-1.5913h2.251c.5522,0,1-.4478,1-1v-1c0-.5522-.4478-1-1-1h-2.251v-.0244l.3308-.5488h1.9202c.5522,0,1-.4478,1-1v-1c0-.5527-.4478-1-1-1h-.1127l2.2134-3.6738c.2849-.4731.1326-1.0874-.3405-1.3726Z"/></svg>