<?xml version="1.0" encoding="UTF-8"?><svg id="a" xmlns="http://www.w3.org/2000/svg" viewBox="0 0 72 72"><defs><style>.c{fill:#161d26;}</style></defs><path class="c" d="M37.0229,27.0063h9.9731c.5541,0,1.0039.4498,1.0039,1.0039v.9858c0,.5541-.4498,1.0039-1.0039,1.0039h-9.9736c-.5538,0-1.0034-.4496-1.0034-1.0034v-.9863c0-.5541.4498-1.0039,1.0039-1.0039Z"/><path class="c" d="M37.0229,36.0093h9.9731c.5541,0,1.0039.4498,1.0039,1.0039v.9863c0,.5538-.4496,1.0034-1.0034,1.0034h-9.9741c-.5538,0-1.0034-.4496-1.0034-1.0034v-.9863c0-.5541.4498-1.0039,1.0039-1.0039Z"/><path class="c" d="M66,37.2246c-.0005-.3984-.1602-.7803-.4429-1.0615l-4.2573-4.2275c-.5859-.5825-1.5332-.5811-2.1177.0029l-2.1689,2.1694V11.5039c0-1.3789-1.1216-2.5-2.5-2.5h-6.54v-1.5c0-.8286-.6719-1.5-1.5-1.5h-20.9702c-.8281,0-1.5.6714-1.5,1.5l.002,1.5h-6.502c-1.3784,0-2.5,1.1211-2.5,2.5v49c0,1.3779,1.1216,2.5,2.5,2.5h37.0103c1.3784,0,2.5-1.1221,2.5-2.5v-13.668l8.5474-8.5474c.2822-.2817.4404-.6646.4395-1.063v-.001ZM46.4004,53.2061l-2.6021.4512.3892-2.4805,16.0591-16.0591,2.1284,2.1138-7.9224,7.9219c-.001.0015-.002.0024-.0029.0039l-8.0493,8.0488ZM44.9731,9.0039v4.6982c-2.3462.6553-5.5518,1.3115-8.98,1.3115-3.4189,0-6.6294-.6533-8.9829-1.3047l-.0073-4.7051h17.9702ZM54.0132,60.0039H18.0029V12.0039h6.0034l.0068,2.833c.0015.6572.4307,1.2373,1.0586,1.4307,3.7129,1.1426,7.4893,1.7461,10.9214,1.7461,4.3511,0,8.3428-.9556,10.9248-1.7573.6274-.1948,1.0552-.7759,1.0552-1.4326v-2.8198h6.04v25.1045l-12.2925,12.2925c-.2246.2241-.3721.5142-.4214.8281l-.7891,5.0317c-.0747.4775.0854.9619.4302,1.3013.2827.2788.6616.4312,1.0518.4312.0854,0,.1709-.0078.2563-.0225l5.1328-.8896c.3047-.0527.5854-.1987.8042-.4175l5.8276-5.8276v10.168Z"/><path class="c" d="M32.5371,21.6143c-.4351-.3403-1.064-.2632-1.4043.1724l-3.8496,4.9282-1.3228-1.5161c-.3633-.416-.9951-.459-1.4111-.0957l-.7534.6577c-.416.3628-.459.9946-.0962,1.4106l1.7202,1.9722c.4814.5522,1.1807.8623,1.9131.8564.0127,0,.0259-.0005.0391-.001.748-.0205,1.4424-.3701,1.9023-.96l4.2227-5.4058c.3398-.4351.2627-1.063-.1724-1.4033l-.7876-.6157Z"/><path class="c" d="M32.5371,32.1143c-.4351-.3403-1.064-.2632-1.4043.1724l-3.8496,4.9282-1.3228-1.5161c-.3633-.416-.9951-.459-1.4111-.0957l-.7534.6577c-.416.3628-.459.9946-.0962,1.4106l1.7202,1.9722c.4814.5522,1.1807.8623,1.9131.8564.0127,0,.0259-.0005.0391-.001.748-.0205,1.4424-.3701,1.9023-.96l4.2227-5.4058c.3398-.4351.2627-1.063-.1724-1.4033l-.7876-.6157Z"/><path class="c" d="M32.5371,42.6143c-.4351-.3403-1.064-.2632-1.4043.1724l-3.8496,4.9282-1.3228-1.5161c-.3633-.416-.9951-.459-1.4111-.0957l-.7534.6577c-.416.3628-.459.9946-.0962,1.4106l1.7202,1.9722c.4814.5522,1.1807.8623,1.9131.8564.0127,0,.0259-.0005.0391-.001.748-.0205,1.4424-.3701,1.9023-.96l4.2227-5.4058c.3398-.4351.2627-1.063-.1724-1.4033l-.7876-.6157Z"/></svg>