<?xml version="1.0" encoding="UTF-8"?><svg id="a" xmlns="http://www.w3.org/2000/svg" viewBox="0 0 72 72"><defs><style>.c{fill:#161d26;}</style></defs><path class="c" d="M38.6519,34.8032l-4.8276-.853c-1.2095-.1748-2.0874-1.2041-2.0894-2.4473.001-.6992.2549-1.3052.7544-1.7998.7539-.7471,2.0513-1.2134,3.3643-1.1924h.1421c1.7266,0,3.3457,1.1016,3.938,2.6787.291.7754,1.1553,1.168,1.9316.877.7754-.2915,1.168-1.1562.877-1.9316-.8774-2.3359-2.9521-4.0103-5.3804-4.4785v-1.7812c0-.5522-.4478-1-1-1h-1c-.5522,0-1,.4478-1,1v1.7607c-1.5557.2637-2.9805.9414-3.9844,1.9365-1.0703,1.0605-1.6382,2.415-1.6426,3.918v.0264c.0083,2.7422,1.9653,5.0127,4.6133,5.395l4.8276.853c1.2104.1753,2.0894,1.2061,2.0894,2.4512v.1689c-.2603,2.1699-2.2881,3.1157-4.1187,3.1035h-.1426c-1.7241,0-3.3438-1.1016-3.9385-2.6797-.292-.7749-1.1567-1.167-1.9326-.8745-.7749.292-1.1665,1.1572-.8745,1.9326.8462,2.2446,2.7988,3.8716,5.1035,4.4116v1.8467c0,.5522.4478,1,1,1h1c.5522,0,1-.4478,1-1v-1.7173c3.1821-.436,5.585-2.7202,5.8955-5.7896.0054-.0503.0078-.1006.0078-.1514v-.251c0-2.75-1.96-5.0293-4.6133-5.4126Z"/><path class="c" d="M61.8701,62.5195l-4.1597-4.1602,2.6782-2.6787c.3569-.3564.5107-.8691.4082-1.3638-.1021-.4946-.4458-.9043-.915-1.0903l-12.9541-5.1436c-.5645-.2236-1.2075-.0859-1.6299.3496-.4229.4351-.5415,1.082-.3013,1.6387l5.4556,12.6421c.1973.4565.6074.7856,1.0957.8794.0938.0176.188.0264.2817.0264.394,0,.7769-.1553,1.0605-.4395l2.6987-2.6992,4.1602,4.1602c.3926.3926,1.0298.3926,1.4229,0l.6982-.6987c.3931-.3926.3931-1.0298,0-1.4224ZM52.3315,59.4961l-3.1455-7.2886,7.4683,2.9653-4.3228,4.3232Z"/><rect class="c" x="13.0333" y="12.0909" width="3" height="8.0986" rx="1.0069" ry="1.0069" transform="translate(-7.1562 15.0053) rotate(-45.0034)"/><rect class="c" x="19.4989" y="9" width="3.0005" height="6.3227" rx="1.0069" ry="1.0069"/><rect class="c" x="8.6181" y="21.5812" width="6.3227" height="3.0005" rx="1.0069" ry="1.0069"/><path class="c" d="M56.25,36.0029c0-12.873-7.3809-20.2563-20.25-20.2563s-20.25,7.3833-20.25,20.2563,7.3809,20.2505,20.25,20.2505c.6987,0,1.3809-.022,2.0454-.0649.0981-.0068.1929-.0239.2847-.0479,1.043-.0786,2.0537-.2046,3.0166-.3896.5527-.1064.894-.6675.7632-1.2148l-.2324-.9722c-.126-.5269-.6445-.8442-1.1768-.7441-1.4551.2744-3.0317.4136-4.7007.4136v.02c-11.124,0-17.25-6.1265-17.25-17.2505s6.126-17.2563,17.25-17.2563,17.25,6.1284,17.25,17.2563c0,1.5039-.1255,2.9185-.3481,4.251l-.0049-.001c-.2881,1.7251-.7661,3.3032-1.4243,4.7061-.2222.4736-.0156,1.0396.4434,1.291l.8667.4751c.4951.2715,1.1313.0874,1.3735-.4224.4009-.8452.7441-1.7417,1.0298-2.6826.0352-.0728.0684-.1465.0918-.2266.645-2.2158.9722-4.7026.9722-7.3906Z"/></svg>