<?xml version="1.0" encoding="UTF-8"?><svg id="a" xmlns="http://www.w3.org/2000/svg" viewBox="0 0 72 72"><defs><style>.c{fill:#161d26;}</style></defs><path class="c" d="M48.0737,9c-.8149-.0723-6.4326-.4229-10.9854,3.2607-3.0952,2.5044-4.9429,6.2568-5.5186,11.1377l-2.0552-2.0552c-.3906-.3906-1.0239-.3906-1.4146,0l-.7065.707c-.3906.3906-.3906,1.0234,0,1.4141l4.5962,4.5962c.5854.5859,1.5352.5859,2.1211,0l4.5962-4.5962c.3906-.3906.3906-1.0234,0-1.4141l-.707-.707c-.3901-.3906-1.0234-.3906-1.4141,0l-1.9814,1.9814c.5312-3.8521,1.9834-6.7886,4.3472-8.7124,3.8237-3.1123,8.8369-2.626,8.8828-2.6216l.1655.0093c12.1846,0,13.5,9.4409,13.5,13.5,0,4.6704-1.2749,8.1982-3.7896,10.4863-3.8657,3.5161-9.5073,3.0273-9.561,3.021l-.1162-.0107-.1123.0054c-.0562.0029-5.6025.2334-11.0737-3.5107-4.5239-3.0957-7.4058-3.9912-12.8472-3.9912-5.5654,0-9.8477,1.6133-12.7275,4.7959-4.1987,4.6392-3.8398,10.9404-3.7725,11.771.0312,12.1147,8.5381,16.4331,16.5,16.4331,14.4878,0,16.2549-11.3408,16.4692-14.3091l2.0161,2.0161c.3906.3906,1.0239.3906,1.4146,0l.7065-.707c.3906-.3901.3906-1.0234,0-1.4141l-4.5962-4.5962c-.5854-.5859-1.5352-.5859-2.1211,0l-4.5962,4.5962c-.3906.3906-.3906,1.0239,0,1.4141l.707.707c.3901.3906,1.0234.3906,1.4141,0l2.061-2.061c-.1821,2.6499-1.6777,11.354-13.4751,11.354-4.0591,0-13.5-1.3154-13.5-13.5l-.0068-.1455c-.0054-.0566-.4956-5.6992,3.021-9.5645,2.2876-2.5146,5.8154-3.79,10.4858-3.79,4.8354,0,7.1284.7129,11.1528,3.4668,5.9551,4.0757,11.8823,4.0654,12.8135,4.0356.9507.0737,7.1553.3726,11.7383-3.7749,3.1821-2.8799,4.7954-7.1621,4.7954-12.7275,0-7.9604-4.3169-16.4658-16.4263-16.5Z"/><path class="c" d="M23.3945,58.3574h1c.5527,0,1-.4482,1-1v-1.127c2.4336-.4551,4.2461-2.2686,4.4902-4.6758.0049-.0508.0078-.1006.0078-.1514v-.1914c0-2.2744-1.6221-4.1602-3.8096-4.4756l-3.6895-.6523c-.7441-.1074-1.2842-.7422-1.2861-1.5107.001-.4395.1543-.8057.4688-1.1172.5098-.5049,1.3916-.8086,2.3125-.8047h.1084c1.1699,0,2.2656.7432,2.666,1.8086.291.7754,1.1562,1.1689,1.9307.877.7764-.291,1.1689-1.1562.8779-1.9316-.6768-1.8027-2.2334-3.1143-4.0771-3.5684v-1.1943c0-.5518-.4473-1-1-1h-1c-.5518,0-1,.4482-1,1v1.166c-1.1367.2461-2.1797.7734-2.9297,1.5166-.8848.876-1.3535,1.9951-1.3574,3.2373v.0225c.0068,2.2686,1.627,4.1465,3.8096,4.4609l3.6895.6523c.7451.1074,1.2861.7441,1.2861,1.5137v.1064c-.1826,1.4199-1.5488,2.0449-2.7812,2.0303h-.1084c-1.168,0-2.2646-.7451-2.666-1.8105-.292-.7754-1.1572-1.167-1.9326-.875s-1.167,1.1572-.875,1.9326c.6533,1.7334,2.1162,3.0176,3.8652,3.5176v1.2441c0,.5518.4482,1,1,1Z"/><path class="c" d="M55.0496,31.3032l-.8795-.5249c-.4102-.2446-.916-.1445-1.2551.1919-1.1238,1.1143-2.6497.8677-2.7246.855-1.3165-.2275-2.4126-1.2129-3.1223-2.6147h1.3538c.5522,0,1-.4478,1-1v-1c0-.5522-.4478-1-1-1h-2.1602c-.0193-.2441-.0469-.4849-.0469-.7373,0-.2485.0121-.4941.0303-.7373h3.2759c.5522,0,1-.4473,1-1v-1c0-.5522-.4478-1-1-1h-2.5427c.6892-1.5488,1.7703-2.5928,2.9397-2.5928,1.2719,0,2.2347.3311,3.0248,1.0576.361.332.9017.3721,1.2911.0742l.803-.6143c.4805-.3677.536-1.0859.1033-1.5083-1.3672-1.334-3.1189-2.0093-5.2222-2.0093-2.7985,0-5.1431,2.2734-6.1598,5.5928h-1.0262c-.5522,0-1,.4478-1,1v1c0,.5527.4478,1,1,1h.5088c-.0132.2441-.0259.4883-.0259.7373,0,.2485.0116.4937.0264.7373h-.5093c-.5522,0-1,.4478-1,1v1c0,.5522.4478,1,1,1h1.0931c1.0013,2.9424,3.1586,5.105,5.8541,5.5708.2715.0469.5898.0757.9404.0757,1.3789,0,3.2478-.4478,4.6453-2.0034.4277-.4766.3346-1.2222-.2152-1.5503Z"/></svg>