<?xml version="1.0" encoding="UTF-8"?><svg id="a" xmlns="http://www.w3.org/2000/svg" viewBox="0 0 72 72"><defs><style>.c{fill:#161d26;}</style></defs><path class="c" d="M37.315,45.1865c-3.8718,0-6.4734-3.5195-6.4734-8.7583,0-3.5693,2.9041-6.4736,6.4734-6.4736s6.4731,2.9043,6.4731,6.4736c0,5.2388-2.6013,8.7583-6.4731,8.7583ZM37.315,32.9634c-1.9058,0-3.4563,1.5503-3.4563,3.4561,0,2.6484.9053,5.7417,3.4563,5.7417s3.4561-3.0933,3.4561-5.7417c0-1.9058-1.5503-3.4561-3.4561-3.4561Z"/><path class="c" d="M48.5343,64.5802c-.5451.0886-1.0589-.2814-1.1475-.8266l-2.1708-13.3552c-.2048-1.3345-1.5352-2.3696-3.0305-2.3696h-9.6211c-1.5212,0-2.8232,1.0127-3.0286,2.3555l-2.0288,13.3523c-.083.546-.5928.9213-1.1387.8385l-.9885-.15c-.5461-.0829-.9215-.5928-.8386-1.1389l2.029-13.3535c.4275-2.7964,3.0044-4.9038,5.9941-4.9038h9.6211c2.9883,0,5.5649,2.1074,5.9937,4.9014l2.1687,13.3421c.0886.5451-.2814,1.0588-.8266,1.1475l-.9869.1605Z"/><path class="c" d="M54.1778,49.9697c-3.8718,0-6.4734-3.5195-6.4734-8.7583,0-3.5693,2.9041-6.4736,6.4734-6.4736s6.4731,2.9043,6.4731,6.4736c0,5.2388-2.6013,8.7583-6.4731,8.7583ZM54.1778,37.7466c-1.9058,0-3.4563,1.5503-3.4563,3.4561,0,2.6484.9053,5.7417,3.4563,5.7417s3.4561-3.0933,3.4561-5.7417c0-1.9058-1.5503-3.4561-3.4561-3.4561Z"/><path class="c" d="M64.326,61.5975c-.5416.1077-1.068-.2441-1.1758-.7857l-1.0535-5.2957c-.2258-1.5767-1.5266-2.7041-3.0398-2.7041h-11.7029v-3h11.7029c2.998,0,5.5759,2.2358,5.9961,5.2012l1.0391,5.2131c.108.5418-.2438,1.0685-.7857,1.1763l-.9804.1949Z"/><path class="c" d="M21.8598,49.6255c-.225.515-.8361.7558-1.3404.5077-5.0625-2.4912-9.1442-6.8386-11.2878-12.0638-1.12-2.7297-1.7017-5.6181-1.7303-8.5887-.1158-12.0238,9.1993-22.3483,21.1784-23.3904,13.3986-1.1656,24.7304,9.1114,25.2982,22.1346.0245.5613-.4406,1.0251-1.0024,1.0251h-1.0042c-.5409,0-.9685-.4318-.9941-.972-.5529-11.6421-10.9832-20.7409-23.0757-19.0822-10.0855,1.3834-17.6153,10.3247-17.3965,20.5023.0538,2.5014.5585,4.9327,1.502,7.2326,1.8574,4.5272,5.3851,8.2986,9.7626,10.4741.4847.2409.7085.8059.4918,1.3018l-.4015.9189Z"/><path class="c" d="M10.993,38.3413l-1.1699-2.7627,19.8389-8.4014,9.457-18.5439,2.6724,1.3633-9.7877,19.1921c-.1069.2096-.2842.3748-.5009.4665l-20.5098,8.6861Z"/><rect class="c" x="20.1166" y="12.2543" width="3.0004" height="21.275" transform="translate(-9.12 29.7163) rotate(-59.1592)"/></svg>