<?xml version="1.0" encoding="UTF-8"?><svg id="a" xmlns="http://www.w3.org/2000/svg" viewBox="0 0 72 72"><defs><style>.c{fill:#161d26;}</style></defs><path class="c" d="M20.5601,32.8999c6.6899,0,10.4502-3.7598,10.4502-10.4497s-3.77-10.4502-10.46-10.4502-10.4399,3.7598-10.4399,10.4502,3.7598,10.4497,10.4497,10.4497ZM20.5503,15c5.0098,0,7.4497,2.4399,7.4497,7.4502s-2.4399,7.4497-7.4497,7.4497-7.4502-2.4399-7.4502-7.4497,2.4399-7.4502,7.4502-7.4502Z"/><path class="c" d="M17.29,26.1001c.48.5601,1.1802.8599,1.9102.8599v.0098h.04c.7397-.0195,1.4399-.3696,1.8999-.96l4.2202-5.4097c.3398-.4302.2695-1.0601-.1704-1.3999l-.79-.6201c-.4297-.3398-1.0601-.27-1.3999.1699l-3.8501,4.9302-1.3198-1.52c-.3599-.4199-.9902-.46-1.4102-.1001l-.75.6597c-.4199.3604-.46.9902-.1001,1.4102l1.7202,1.9702Z"/><path class="c" d="M66.7231,51.2637l-1.8745-6.6943c-.4219-1.4614-1.541-2.6025-2.9937-3.0527l-1.1338-.3511c.0103-.0752.0073-.1523-.0161-.2295l-5.2026-16.9712c-.6606-1.8008-2.311-2.9648-4.2041-2.9648h-14.2983c-.5522,0-1,.4478-1,1v1c0,.5522.4478,1,1,1h14.2983c.6304,0,1.1621.3828,1.3618.9209l.627,2.0459h-8.5337c-.7368,0-1.4326.3228-1.9087.8857-.4458.5269-.6519,1.209-.5757,1.8911l.0869,5.6265c.0298,1.9512,1.3022,3.6504,3.1665,4.2275l15.4448,4.7847c.4849.1499.8579.5308.9956,1.0073l.7256,2.5918h-1.2812c-.5581,0-1.0107.4526-1.0107,1.0107v.9722c0,.5581.4526,1.0107,1.0107,1.0107h2.1196l.3105,1.1089c.1318.457.0435.9375-.2427,1.3174-.2861.3809-.7231.5986-1.1987.5986h-5.4224c0-.0103.0015-.0205.0015-.0308,0-3.3071-2.6807-5.9878-5.9873-5.9878s-5.9878,2.6807-5.9878,5.9878c0,.0103.0015.0205.0015.0308H10c-.5522,0-1,.4478-1,1v1c0,.5522.4478,1,1,1h35.8301c1.041,1.7671,2.958,2.9565,5.1577,2.9565s4.1162-1.1895,5.1572-2.9565h6.251c1.4272,0,2.7383-.6543,3.5962-1.7949s1.123-2.5811.731-3.9414ZM46.4102,36.7324c-.6211-.1924-1.0449-.7588-1.0547-1.4087l-.0825-5.3569h8.9336l3.1079,10.1431-10.9043-3.3774ZM50.9878,56.9565c-1.6475,0-2.9878-1.3403-2.9878-2.9873s1.3403-2.9878,2.9878-2.9878,2.9873,1.3403,2.9873,2.9878-1.3403,2.9873-2.9873,2.9873Z"/><path class="c" d="M12.9941,47.9814h9.9873c.5487,0,.9941.4455.9941.9941v1.0054c0,.5487-.4455.9941-.9941.9941h-9.9868c-.549,0-.9946-.4457-.9946-.9946v-1.0049c0-.5487.4455-.9941.9941-.9941Z"/><rect class="c" x="17.8564" y="42.0327" width="6.1436" height="3" rx=".9966" ry=".9966"/></svg>