<?xml version="1.0" encoding="UTF-8"?><svg id="a" xmlns="http://www.w3.org/2000/svg" viewBox="0 0 72 72"><defs><style>.c{fill:none;}.d{fill:#161d26;}</style></defs><path class="d" d="M12.7837,55.7761h10.0409c.5539,0,1.0037.4497,1.0037,1.0037v1.0047c0,.554-.4498,1.0037-1.0037,1.0037h-10.0419c-.5539,0-1.0037-.4497-1.0037-1.0037v-1.0037c0-.5545.4502-1.0047,1.0047-1.0047Z" transform="translate(-35.9905 30.7415) rotate(-46.4739)"/><path class="d" d="M22.919,59.9623h7.0138c.5545,0,1.0048.4502,1.0048,1.0048v1.0033c0,.5542-.4499,1.0042-1.0042,1.0042h-7.0138c-.5545,0-1.0048-.4502-1.0048-1.0048v-1.0033c0-.5542.4499-1.0042,1.0042-1.0042Z" transform="translate(-39.5146 72.8049) rotate(-76.4913)"/><rect class="d" x="8.9987" y="47.0775" width="9.0225" height="3.012" rx="1.0041" ry="1.0041" transform="translate(-13.2254 5.8273) rotate(-16.4776)"/><path class="d" d="M52.4153,16.2118h10.0399c.5545,0,1.0046.4502,1.0046,1.0046v1.0037c0,.554-.4498,1.0037-1.0037,1.0037h-10.0419c-.5539,0-1.0037-.4497-1.0037-1.0037v-1.0037c0-.5545.4502-1.0047,1.0047-1.0047Z" transform="translate(5.0339 47.1598) rotate(-46.4739)"/><rect class="d" x="44.3013" y="12.0254" width="9.0227" height="3.0123" rx="1.0043" ry="1.0043" transform="translate(24.2531 57.8329) rotate(-76.4913)"/><rect class="d" x="57.2177" y="24.9104" width="9.0225" height="3.012" rx="1.0041" ry="1.0041" transform="translate(-4.9576 18.5938) rotate(-16.4776)"/><path class="d" d="M38.9399,17.7266c-.8657-.8652-2.0068-1.3555-3.2139-1.3799l-8.7554-.1782c-.0024-.0459.0015-.0913-.0005-.1372-.1514-3.0713-.8516-6.0063-2.0342-8.5547-.2368-.5107-.8677-.7021-1.3647-.4385l-.8872.4707c-.4771.2529-.6519.8315-.4282,1.3228.9756,2.1465,1.5747,4.6904,1.7114,7.2759l-5.4404-.1108c-.6714-.0103-1.3262.2427-1.8066.7231s-.7373,1.1221-.7236,1.8071l.3501,17.1997c.0244,1.207.5146,2.3486,1.3804,3.2129l21.1787,21.1797c.8652.8652,2.0068,1.3555,3.2139,1.3799.0317.001.0635.001.0957.001,1.1938,0,2.3066-.457,3.1426-1.293l14.8496-14.8491c1.7544-1.7544,1.7144-4.6489-.0884-6.4517l-21.1792-21.1797ZM58.0859,43.2368l-14.8491,14.8491c-.585.5845-1.5757.5454-2.21-.0879l-21.1787-21.1797c-.3105-.3105-.4937-.7305-.502-1.1533l-.3389-16.6582,4.8911.0996c-.1411,1.6353-.4458,3.2217-.9419,4.6519-.1772.5098.0503,1.0688.5479,1.2769l.9253.3867c.52.2168,1.1313-.0322,1.3193-.5635.6196-1.751.9941-3.6953,1.1509-5.6904l8.7656.1782c.4224.0083.8428.1914,1.1533.5015l21.1792,21.1797c.6333.6333.6729,1.6245.0879,2.2095Z"/><path class="d" d="M44.4817,33.1696l-2.8857-.4517-1.2686-2.6802c-.418-.8823-1.2837-1.4302-2.2598-1.4302s-1.8418.5479-2.2593,1.4302l-1.269,2.6802-2.8857.4517c-.9263.145-1.6865.7871-1.9844,1.6763-.2974.8892-.0771,1.8599.5757,2.5332l2.1582,2.2275-.4937,3.0884c-.1514.9497.2427,1.8838,1.0288,2.438.7856.5537,1.7983.6108,2.6416.1484l2.4878-1.3633,2.4878,1.3633c.3789.208.792.3105,1.2036.3105.5039,0,1.0054-.1543,1.4385-.459.7861-.5547,1.1802-1.4883,1.0283-2.4385l-.4937-3.0879,2.1582-2.2275c.6528-.6729.8735-1.6436.5757-2.5332-.2974-.8887-1.0581-1.5312-1.9844-1.6763ZM40.533,38.5968l.5693,3.5635-3.0347-1.6641-3.0347,1.6641.5693-3.5635-2.5317-2.6123,3.501-.5479,1.4961-3.1606,1.4961,3.1606,3.501.5479-2.5317,2.6123Z"/><rect class="c" width="72" height="72"/></svg>