<?xml version="1.0" encoding="UTF-8"?>
<svg width="24px" height="18px" viewBox="0 0 24 18" version="1.1" xmlns="http://www.w3.org/2000/svg" xmlns:xlink="http://www.w3.org/1999/xlink">
    <title>Icon / Flags / Europe</title>
    <g id="Icon-/-Flags-/-Europe" stroke="none" stroke-width="1" fill="none" fill-rule="evenodd">
        <rect id="background" fill="#43458B" x="0" y="0" width="24" height="18" rx="2"></rect>
        <path d="M11.9904803,3.40662437 L11.4515715,3.78163012 C11.4440161,3.78688769 11.433629,3.78502486 11.4283715,3.77746938 C11.4254606,3.77328628 11.4246236,3.76800132 11.4260993,3.76312345 L11.616219,3.13470758 C11.6182376,3.1280353 11.6158905,3.12081158 11.6103355,3.1166001 L11.0871519,2.71995053 C11.0798168,2.71438952 11.0783787,2.70393522 11.0839397,2.69660021 C11.0870186,2.69253917 11.0917862,2.69010994 11.0968814,2.6900061 L11.7532906,2.6766295 C11.7602601,2.67648747 11.766405,2.67202296 11.7686938,2.66543845 L11.9842573,2.04528979 C11.9872795,2.03659532 11.9967777,2.03199704 12.0054722,2.03501923 C12.0102859,2.03669247 12.0140695,2.04047609 12.0157427,2.04528979 L12.2313062,2.66543845 C12.233595,2.67202296 12.2397399,2.67648747 12.2467094,2.6766295 L12.9031186,2.6900061 C12.9123214,2.69019364 12.9196298,2.69780605 12.9194422,2.70700888 C12.9193384,2.71210404 12.9169092,2.71687168 12.9128481,2.71995053 L12.3896645,3.1166001 C12.3841095,3.12081158 12.3817624,3.1280353 12.383781,3.13470758 L12.5739007,3.76312345 C12.5765662,3.77193382 12.5715848,3.78123682 12.5627744,3.7839023 C12.5578965,3.78537804 12.5526116,3.78454098 12.5484285,3.78163012 L12.0095197,3.40662437 C12.0037977,3.4026427 11.9962023,3.4026427 11.9904803,3.40662437 Z" id="Star" fill="#FCD669"></path>
        <path d="M14.9904803,4.40662437 L14.4515715,4.78163012 C14.4440161,4.78688769 14.433629,4.78502486 14.4283715,4.77746938 C14.4254606,4.77328628 14.4246236,4.76800132 14.4260993,4.76312345 L14.616219,4.13470758 C14.6182376,4.1280353 14.6158905,4.12081158 14.6103355,4.1166001 L14.0871519,3.71995053 C14.0798168,3.71438952 14.0783787,3.70393522 14.0839397,3.69660021 C14.0870186,3.69253917 14.0917862,3.69010994 14.0968814,3.6900061 L14.7532906,3.6766295 C14.7602601,3.67648747 14.766405,3.67202296 14.7686938,3.66543845 L14.9842573,3.04528979 C14.9872795,3.03659532 14.9967777,3.03199704 15.0054722,3.03501923 C15.0102859,3.03669247 15.0140695,3.04047609 15.0157427,3.04528979 L15.2313062,3.66543845 C15.233595,3.67202296 15.2397399,3.67648747 15.2467094,3.6766295 L15.9031186,3.6900061 C15.9123214,3.69019364 15.9196298,3.69780605 15.9194422,3.70700888 C15.9193384,3.71210404 15.9169092,3.71687168 15.9128481,3.71995053 L15.3896645,4.1166001 C15.3841095,4.12081158 15.3817624,4.1280353 15.383781,4.13470758 L15.5739007,4.76312345 C15.5765662,4.77193382 15.5715848,4.78123682 15.5627744,4.7839023 C15.5578965,4.78537804 15.5526116,4.78454098 15.5484285,4.78163012 L15.0095197,4.40662437 C15.0037977,4.4026427 14.9962023,4.4026427 14.9904803,4.40662437 Z" id="Star-Copy" fill="#FCD669"></path>
        <path d="M16.9904803,6.40662437 L16.4515715,6.78163012 C16.4440161,6.78688769 16.433629,6.78502486 16.4283715,6.77746938 C16.4254606,6.77328628 16.4246236,6.76800132 16.4260993,6.76312345 L16.616219,6.13470758 C16.6182376,6.1280353 16.6158905,6.12081158 16.6103355,6.1166001 L16.0871519,5.71995053 C16.0798168,5.71438952 16.0783787,5.70393522 16.0839397,5.69660021 C16.0870186,5.69253917 16.0917862,5.69010994 16.0968814,5.6900061 L16.7532906,5.6766295 C16.7602601,5.67648747 16.766405,5.67202296 16.7686938,5.66543845 L16.9842573,5.04528979 C16.9872795,5.03659532 16.9967777,5.03199704 17.0054722,5.03501923 C17.0102859,5.03669247 17.0140695,5.04047609 17.0157427,5.04528979 L17.2313062,5.66543845 C17.233595,5.67202296 17.2397399,5.67648747 17.2467094,5.6766295 L17.9031186,5.6900061 C17.9123214,5.69019364 17.9196298,5.69780605 17.9194422,5.70700888 C17.9193384,5.71210404 17.9169092,5.71687168 17.9128481,5.71995053 L17.3896645,6.1166001 C17.3841095,6.12081158 17.3817624,6.1280353 17.383781,6.13470758 L17.5739007,6.76312345 C17.5765662,6.77193382 17.5715848,6.78123682 17.5627744,6.7839023 C17.5578965,6.78537804 17.5526116,6.78454098 17.5484285,6.78163012 L17.0095197,6.40662437 C17.0037977,6.4026427 16.9962023,6.4026427 16.9904803,6.40662437 Z" id="Star-Copy-2" fill="#FCD669"></path>
        <path d="M17.9904803,9.40662437 L17.4515715,9.78163012 C17.4440161,9.78688769 17.433629,9.78502486 17.4283715,9.77746938 C17.4254606,9.77328628 17.4246236,9.76800132 17.4260993,9.76312345 L17.616219,9.13470758 C17.6182376,9.1280353 17.6158905,9.12081158 17.6103355,9.1166001 L17.0871519,8.71995053 C17.0798168,8.71438952 17.0783787,8.70393522 17.0839397,8.69660021 C17.0870186,8.69253917 17.0917862,8.69010994 17.0968814,8.6900061 L17.7532906,8.6766295 C17.7602601,8.67648747 17.766405,8.67202296 17.7686938,8.66543845 L17.9842573,8.04528979 C17.9872795,8.03659532 17.9967777,8.03199704 18.0054722,8.03501923 C18.0102859,8.03669247 18.0140695,8.04047609 18.0157427,8.04528979 L18.2313062,8.66543845 C18.233595,8.67202296 18.2397399,8.67648747 18.2467094,8.6766295 L18.9031186,8.6900061 C18.9123214,8.69019364 18.9196298,8.69780605 18.9194422,8.70700888 C18.9193384,8.71210404 18.9169092,8.71687168 18.9128481,8.71995053 L18.3896645,9.1166001 C18.3841095,9.12081158 18.3817624,9.1280353 18.383781,9.13470758 L18.5739007,9.76312345 C18.5765662,9.77193382 18.5715848,9.78123682 18.5627744,9.7839023 C18.5578965,9.78537804 18.5526116,9.78454098 18.5484285,9.78163012 L18.0095197,9.40662437 C18.0037977,9.4026427 17.9962023,9.4026427 17.9904803,9.40662437 Z" id="Star-Copy-3" fill="#FCD669"></path>
        <path d="M16.9904803,12.4066244 L16.4515715,12.7816301 C16.4440161,12.7868877 16.433629,12.7850249 16.4283715,12.7774694 C16.4254606,12.7732863 16.4246236,12.7680013 16.4260993,12.7631234 L16.616219,12.1347076 C16.6182376,12.1280353 16.6158905,12.1208116 16.6103355,12.1166001 L16.0871519,11.7199505 C16.0798168,11.7143895 16.0783787,11.7039352 16.0839397,11.6966002 C16.0870186,11.6925392 16.0917862,11.6901099 16.0968814,11.6900061 L16.7532906,11.6766295 C16.7602601,11.6764875 16.766405,11.672023 16.7686938,11.6654385 L16.9842573,11.0452898 C16.9872795,11.0365953 16.9967777,11.031997 17.0054722,11.0350192 C17.0102859,11.0366925 17.0140695,11.0404761 17.0157427,11.0452898 L17.2313062,11.6654385 C17.233595,11.672023 17.2397399,11.6764875 17.2467094,11.6766295 L17.9031186,11.6900061 C17.9123214,11.6901936 17.9196298,11.697806 17.9194422,11.7070089 C17.9193384,11.712104 17.9169092,11.7168717 17.9128481,11.7199505 L17.3896645,12.1166001 C17.3841095,12.1208116 17.3817624,12.1280353 17.383781,12.1347076 L17.5739007,12.7631234 C17.5765662,12.7719338 17.5715848,12.7812368 17.5627744,12.7839023 C17.5578965,12.785378 17.5526116,12.784541 17.5484285,12.7816301 L17.0095197,12.4066244 C17.0037977,12.4026427 16.9962023,12.4026427 16.9904803,12.4066244 Z" id="Star-Copy-4" fill="#FCD669"></path>
        <path d="M14.9904803,14.4066244 L14.4515715,14.7816301 C14.4440161,14.7868877 14.433629,14.7850249 14.4283715,14.7774694 C14.4254606,14.7732863 14.4246236,14.7680013 14.4260993,14.7631234 L14.616219,14.1347076 C14.6182376,14.1280353 14.6158905,14.1208116 14.6103355,14.1166001 L14.0871519,13.7199505 C14.0798168,13.7143895 14.0783787,13.7039352 14.0839397,13.6966002 C14.0870186,13.6925392 14.0917862,13.6901099 14.0968814,13.6900061 L14.7532906,13.6766295 C14.7602601,13.6764875 14.766405,13.672023 14.7686938,13.6654385 L14.9842573,13.0452898 C14.9872795,13.0365953 14.9967777,13.031997 15.0054722,13.0350192 C15.0102859,13.0366925 15.0140695,13.0404761 15.0157427,13.0452898 L15.2313062,13.6654385 C15.233595,13.672023 15.2397399,13.6764875 15.2467094,13.6766295 L15.9031186,13.6900061 C15.9123214,13.6901936 15.9196298,13.697806 15.9194422,13.7070089 C15.9193384,13.712104 15.9169092,13.7168717 15.9128481,13.7199505 L15.3896645,14.1166001 C15.3841095,14.1208116 15.3817624,14.1280353 15.383781,14.1347076 L15.5739007,14.7631234 C15.5765662,14.7719338 15.5715848,14.7812368 15.5627744,14.7839023 C15.5578965,14.785378 15.5526116,14.784541 15.5484285,14.7816301 L15.0095197,14.4066244 C15.0037977,14.4026427 14.9962023,14.4026427 14.9904803,14.4066244 Z" id="Star-Copy-5" fill="#FCD669"></path>
        <path d="M11.9904803,15.4066244 L11.4515715,15.7816301 C11.4440161,15.7868877 11.433629,15.7850249 11.4283715,15.7774694 C11.4254606,15.7732863 11.4246236,15.7680013 11.4260993,15.7631234 L11.616219,15.1347076 C11.6182376,15.1280353 11.6158905,15.1208116 11.6103355,15.1166001 L11.0871519,14.7199505 C11.0798168,14.7143895 11.0783787,14.7039352 11.0839397,14.6966002 C11.0870186,14.6925392 11.0917862,14.6901099 11.0968814,14.6900061 L11.7532906,14.6766295 C11.7602601,14.6764875 11.766405,14.672023 11.7686938,14.6654385 L11.9842573,14.0452898 C11.9872795,14.0365953 11.9967777,14.031997 12.0054722,14.0350192 C12.0102859,14.0366925 12.0140695,14.0404761 12.0157427,14.0452898 L12.2313062,14.6654385 C12.233595,14.672023 12.2397399,14.6764875 12.2467094,14.6766295 L12.9031186,14.6900061 C12.9123214,14.6901936 12.9196298,14.697806 12.9194422,14.7070089 C12.9193384,14.712104 12.9169092,14.7168717 12.9128481,14.7199505 L12.3896645,15.1166001 C12.3841095,15.1208116 12.3817624,15.1280353 12.383781,15.1347076 L12.5739007,15.7631234 C12.5765662,15.7719338 12.5715848,15.7812368 12.5627744,15.7839023 C12.5578965,15.785378 12.5526116,15.784541 12.5484285,15.7816301 L12.0095197,15.4066244 C12.0037977,15.4026427 11.9962023,15.4026427 11.9904803,15.4066244 Z" id="Star-Copy-6" fill="#FCD669"></path>
        <path d="M8.99048033,14.4066244 L8.45157154,14.7816301 C8.44401606,14.7868877 8.43362903,14.7850249 8.42837146,14.7774694 C8.42546061,14.7732863 8.42462355,14.7680013 8.42609929,14.7631234 L8.61621898,14.1347076 C8.6182376,14.1280353 8.61589048,14.1208116 8.6103355,14.1166001 L8.08715186,13.7199505 C8.07981685,13.7143895 8.07837873,13.7039352 8.08393975,13.6966002 C8.08701861,13.6925392 8.09178624,13.6901099 8.0968814,13.6900061 L8.75329062,13.6766295 C8.76026013,13.6764875 8.76640499,13.672023 8.76869377,13.6654385 L8.98425728,13.0452898 C8.98727947,13.0365953 8.9967777,13.031997 9.00547216,13.0350192 C9.01028586,13.0366925 9.01406948,13.0404761 9.01574272,13.0452898 L9.23130623,13.6654385 C9.23359501,13.672023 9.23973987,13.6764875 9.24670938,13.6766295 L9.9031186,13.6900061 C9.91232144,13.6901936 9.91962978,13.697806 9.91944224,13.7070089 C9.91933841,13.712104 9.91690917,13.7168717 9.91284814,13.7199505 L9.3896645,14.1166001 C9.38410952,14.1208116 9.3817624,14.1280353 9.38378102,14.1347076 L9.57390071,14.7631234 C9.57656618,14.7719338 9.57158476,14.7812368 9.56277439,14.7839023 C9.55789652,14.785378 9.55261155,14.784541 9.54842846,14.7816301 L9.00951967,14.4066244 C9.00379773,14.4026427 8.99620227,14.4026427 8.99048033,14.4066244 Z" id="Star-Copy-7" fill="#FCD669"></path>
        <path d="M6.99048033,12.4066244 L6.45157154,12.7816301 C6.44401606,12.7868877 6.43362903,12.7850249 6.42837146,12.7774694 C6.42546061,12.7732863 6.42462355,12.7680013 6.42609929,12.7631234 L6.61621898,12.1347076 C6.6182376,12.1280353 6.61589048,12.1208116 6.6103355,12.1166001 L6.08715186,11.7199505 C6.07981685,11.7143895 6.07837873,11.7039352 6.08393975,11.6966002 C6.08701861,11.6925392 6.09178624,11.6901099 6.0968814,11.6900061 L6.75329062,11.6766295 C6.76026013,11.6764875 6.76640499,11.672023 6.76869377,11.6654385 L6.98425728,11.0452898 C6.98727947,11.0365953 6.9967777,11.031997 7.00547216,11.0350192 C7.01028586,11.0366925 7.01406948,11.0404761 7.01574272,11.0452898 L7.23130623,11.6654385 C7.23359501,11.672023 7.23973987,11.6764875 7.24670938,11.6766295 L7.9031186,11.6900061 C7.91232144,11.6901936 7.91962978,11.697806 7.91944224,11.7070089 C7.91933841,11.712104 7.91690917,11.7168717 7.91284814,11.7199505 L7.3896645,12.1166001 C7.38410952,12.1208116 7.3817624,12.1280353 7.38378102,12.1347076 L7.57390071,12.7631234 C7.57656618,12.7719338 7.57158476,12.7812368 7.56277439,12.7839023 C7.55789652,12.785378 7.55261155,12.784541 7.54842846,12.7816301 L7.00951967,12.4066244 C7.00379773,12.4026427 6.99620227,12.4026427 6.99048033,12.4066244 Z" id="Star-Copy-8" fill="#FCD669"></path>
        <path d="M5.99048033,9.40662437 L5.45157154,9.78163012 C5.44401606,9.78688769 5.43362903,9.78502486 5.42837146,9.77746938 C5.42546061,9.77328628 5.42462355,9.76800132 5.42609929,9.76312345 L5.61621898,9.13470758 C5.6182376,9.1280353 5.61589048,9.12081158 5.6103355,9.1166001 L5.08715186,8.71995053 C5.07981685,8.71438952 5.07837873,8.70393522 5.08393975,8.69660021 C5.08701861,8.69253917 5.09178624,8.69010994 5.0968814,8.6900061 L5.75329062,8.6766295 C5.76026013,8.67648747 5.76640499,8.67202296 5.76869377,8.66543845 L5.98425728,8.04528979 C5.98727947,8.03659532 5.9967777,8.03199704 6.00547216,8.03501923 C6.01028586,8.03669247 6.01406948,8.04047609 6.01574272,8.04528979 L6.23130623,8.66543845 C6.23359501,8.67202296 6.23973987,8.67648747 6.24670938,8.6766295 L6.9031186,8.6900061 C6.91232144,8.69019364 6.91962978,8.69780605 6.91944224,8.70700888 C6.91933841,8.71210404 6.91690917,8.71687168 6.91284814,8.71995053 L6.3896645,9.1166001 C6.38410952,9.12081158 6.3817624,9.1280353 6.38378102,9.13470758 L6.57390071,9.76312345 C6.57656618,9.77193382 6.57158476,9.78123682 6.56277439,9.7839023 C6.55789652,9.78537804 6.55261155,9.78454098 6.54842846,9.78163012 L6.00951967,9.40662437 C6.00379773,9.4026427 5.99620227,9.4026427 5.99048033,9.40662437 Z" id="Star-Copy-9" fill="#FCD669"></path>
        <path d="M6.99048033,6.40662437 L6.45157154,6.78163012 C6.44401606,6.78688769 6.43362903,6.78502486 6.42837146,6.77746938 C6.42546061,6.77328628 6.42462355,6.76800132 6.42609929,6.76312345 L6.61621898,6.13470758 C6.6182376,6.1280353 6.61589048,6.12081158 6.6103355,6.1166001 L6.08715186,5.71995053 C6.07981685,5.71438952 6.07837873,5.70393522 6.08393975,5.69660021 C6.08701861,5.69253917 6.09178624,5.69010994 6.0968814,5.6900061 L6.75329062,5.6766295 C6.76026013,5.67648747 6.76640499,5.67202296 6.76869377,5.66543845 L6.98425728,5.04528979 C6.98727947,5.03659532 6.9967777,5.03199704 7.00547216,5.03501923 C7.01028586,5.03669247 7.01406948,5.04047609 7.01574272,5.04528979 L7.23130623,5.66543845 C7.23359501,5.67202296 7.23973987,5.67648747 7.24670938,5.6766295 L7.9031186,5.6900061 C7.91232144,5.69019364 7.91962978,5.69780605 7.91944224,5.70700888 C7.91933841,5.71210404 7.91690917,5.71687168 7.91284814,5.71995053 L7.3896645,6.1166001 C7.38410952,6.12081158 7.3817624,6.1280353 7.38378102,6.13470758 L7.57390071,6.76312345 C7.57656618,6.77193382 7.57158476,6.78123682 7.56277439,6.7839023 C7.55789652,6.78537804 7.55261155,6.78454098 7.54842846,6.78163012 L7.00951967,6.40662437 C7.00379773,6.4026427 6.99620227,6.4026427 6.99048033,6.40662437 Z" id="Star-Copy-10" fill="#FCD669"></path>
        <path d="M8.99048033,4.40662437 L8.45157154,4.78163012 C8.44401606,4.78688769 8.43362903,4.78502486 8.42837146,4.77746938 C8.42546061,4.77328628 8.42462355,4.76800132 8.42609929,4.76312345 L8.61621898,4.13470758 C8.6182376,4.1280353 8.61589048,4.12081158 8.6103355,4.1166001 L8.08715186,3.71995053 C8.07981685,3.71438952 8.07837873,3.70393522 8.08393975,3.69660021 C8.08701861,3.69253917 8.09178624,3.69010994 8.0968814,3.6900061 L8.75329062,3.6766295 C8.76026013,3.67648747 8.76640499,3.67202296 8.76869377,3.66543845 L8.98425728,3.04528979 C8.98727947,3.03659532 8.9967777,3.03199704 9.00547216,3.03501923 C9.01028586,3.03669247 9.01406948,3.04047609 9.01574272,3.04528979 L9.23130623,3.66543845 C9.23359501,3.67202296 9.23973987,3.67648747 9.24670938,3.6766295 L9.9031186,3.6900061 C9.91232144,3.69019364 9.91962978,3.69780605 9.91944224,3.70700888 C9.91933841,3.71210404 9.91690917,3.71687168 9.91284814,3.71995053 L9.3896645,4.1166001 C9.38410952,4.12081158 9.3817624,4.1280353 9.38378102,4.13470758 L9.57390071,4.76312345 C9.57656618,4.77193382 9.57158476,4.78123682 9.56277439,4.7839023 C9.55789652,4.78537804 9.55261155,4.78454098 9.54842846,4.78163012 L9.00951967,4.40662437 C9.00379773,4.4026427 8.99620227,4.4026427 8.99048033,4.40662437 Z" id="Star-Copy-11" fill="#FCD669"></path>
    </g>
</svg>