<?xml version="1.0" encoding="UTF-8"?><svg id="a" xmlns="http://www.w3.org/2000/svg" viewBox="0 0 72 72"><defs><style>.c{fill:#161d26;}</style></defs><path class="c" d="M42.5972,17.0972c-2.7534,0-4.0811,1.2764-4.6997,2.3301-.1606.2649-.2871.5276-.3774.7766-.2627.6829-.396,1.479-.396,2.3662,0,3.427,2.0464,5.4731,5.4731,5.4731,1.2202,0,2.271-.2534,3.1772-.7859l.2817-.187c.9189-.6567,2.0142-1.9707,2.0142-4.5002,0-3.427-2.0459-5.4729-5.4731-5.4729ZM44.3335,24.6147l-.1284.0867c-.3872.2268-.9282.3418-1.6079.3418-1.7563,0-2.4731-.7166-2.4731-2.4731,0-.5176.0659-.9512.2056-1.3152.0361-.0989.0825-.1882.1445-.291.1255-.2144.5088-.8667,2.123-.8667,1.7798,0,2.4731.6934,2.4731,2.4729,0,1.0068-.2554,1.7-.7368,2.0447Z"/><path class="c" d="M58.5703,20.9299h-4.0571c-.4438-3.9065-2.7559-7.3655-6.2642-9.2327-3.4443-1.833-7.8594-1.8328-11.3037,0-3.0952,1.6472-5.2573,4.5339-6.0303,7.8728h-12.8452c-2.5942,0-7.5,1.8811-7.5,9v25.5h.0005v1.5c0,.2324.0547.4629.1582.6709.0781.1562,1.9766,3.8291,7.3418,3.8291,3.5479,0,7.5-1.8291,7.5-4.4531v-12.6411c.583-.4351,1.5049-.9058,2.7666-.9058.9609,0,2.4746.7402,4.0781,1.5244,2.7109,1.3252,6.0859,2.9756,10.1328,2.9756,5.8057,0,9.1792-1.8013,11.0767-3.0652.4712-.314.5874-.9519.2588-1.4131l-.5806-.8149c-.3101-.4355-.9092-.5562-1.355-.2603-1.6582,1.1008-4.4438,2.5535-9.3999,2.5535-3.3525,0-6.2549-1.4189-8.8154-2.6709-2.0068-.9814-3.7402-1.8291-5.3955-1.8291-1.0688,0-1.9849.2148-2.7666.5203v-12.5203c0-.6875-.4727-1.2754-1.1387-1.4434-.668-.168-1.3672.1484-1.6934.7529-.0479.0898-1.2207,2.1904-4.6572,2.1904-.1265-.0017-2.8081-.0803-4.1733-2.5388.978-3.2815,3.792-3.4543,4.1621-3.4612h12.5356c.1743,10.6604,10.7373,17.4619,11.1904,17.7483.2451.1545.5229.2319.8013.2319s.5566-.0774.8013-.2319c.4341-.2739,10.1211-6.5129,11.1108-16.3884h4.061v28.5h-29c-.5522,0-1,.4478-1,1v1c0,.5522.4478,1,1,1h29c1.6572,0,3-1.3433,3-3v-28.5c0-1.657-1.3428-3-3-3ZM18.0703,31.5701c1.918,0,3.3926-.4697,4.5-1.0801v25.0469c-.2852.4951-2.1748,1.5332-4.5,1.5332-2.7793,0-4.0801-1.3652-4.5-1.9316v-4.0684h-.0005v-21.0181c1.6045,1.1404,3.3965,1.5181,4.5005,1.5181ZM42.5972,37.2187c-2.3423-1.7366-9-7.3389-9-14.9136,0-3.3479,1.8232-6.3977,4.7578-7.9595,1.3081-.6963,2.7354-1.0493,4.2422-1.0493s2.9341.353,4.2427,1.0493c2.9346,1.5618,4.7573,4.6116,4.7573,7.9595,0,7.5747-6.6572,13.177-9,14.9136Z"/></svg>