<?xml version="1.0" encoding="UTF-8"?><svg id="a" xmlns="http://www.w3.org/2000/svg" viewBox="0 0 72 72"><defs><style>.c{fill:#161d26;}</style></defs><path class="c" d="M53.1289,45.9204c-.3979-.3677-1.0073-.3413-1.3916.0405-4.1987,4.1675-9.9233,6.5391-15.8579,6.5391-12.4062,0-22.5-10.0938-22.5-22.5,0-7.4863,3.709-14.4609,9.9209-18.6582,1.2046-.8145,2.4888-1.5107,3.8276-2.0762.5-.2114.7563-.7666.5669-1.2754l-.3491-.9375c-.1958-.5264-.7915-.8003-1.3096-.583-1.5449.6475-3.0269,1.4473-4.4155,2.3857-7.0391,4.7568-11.2412,12.6611-11.2412,21.1445,0,13.6201,10.7344,24.7812,24.187,25.4668v3.7446c0,.4141-.3354.75-.75.75h-8.7495c-.5522,0-1,.4478-1,1v1.0005c0,.5527.4478,1,1,1h21.8662c.5522,0,1-.4473,1-1v-1.0005c0-.5522-.4478-1-1-1h-8.6157c-.4141,0-.75-.3359-.75-.75v-3.7749c6.1401-.4111,11.9736-3.0425,16.3389-7.4014.3984-.3975.3711-1.0552-.0425-1.4365l-.7349-.6782Z"/><path class="c" d="M16.3794,30c0,10.7695,8.7305,19.5,19.5,19.5s19.5-8.7305,19.5-19.5-8.7305-19.5-19.5-19.5-19.5,8.7305-19.5,19.5ZM19.3794,30c0-.439.0322-.8701.0659-1.3008.9482-.1455,2.8296-.4937,4.1978-1.1309.4224-.1968.8779-.4414,1.3545-.6982,1.4121-.7622,3.1704-1.709,4.2012-1.1943.6064.3027,1.0425,1.1738,1.1665,2.3281.1646,1.5347-.231,3.3521-1.1133,5.1172-.6479,1.2949-.5063,2.7461-.3696,4.1494.0615.6299.125,1.2812.125,1.9375,0,1.377-2.4912,2.834-3.8306,2.834-.1602,0-.311.0312-.4556.0776-3.2749-3.0171-5.3418-7.3262-5.3418-12.1196ZM52.3794,30c0,2.7524-.6865,5.3447-1.8838,7.6289-3.1206-.374-6.6899-1.4424-7.646-4.3115-.4648-1.394-.4648-2.8535-.4648-4.2651,0-1.6445,0-3.1978-.6997-4.5981-.3384-.6768-.7578-1.1304-1.1626-1.5688-.6001-.6489-1.2202-1.3198-1.8169-3.1099-1.0601-3.1792,2.2417-5.1816,2.394-5.2715.0479-.0283.0879-.0635.1313-.0957,6.4756,2.2295,11.1484,8.3687,11.1484,15.5918ZM35.8794,13.5c.5645,0,1.1226.0293,1.6729.085-1.4863,1.6294-2.6997,4.1187-1.6929,7.1396.8013,2.4023,1.7598,3.4399,2.46,4.1973.3105.3359.5347.5781.6821.874.3833.7666.3833,1.9204.3833,3.2563,0,1.5737,0,3.3579.6187,5.2139,1.0605,3.1812,4.0449,5.2705,8.6807,6.1201-3.0278,3.7256-7.6406,6.1138-12.8047,6.1138-2.9146,0-5.6509-.7666-8.0298-2.0986,2.1353-.9482,4.1577-2.8677,4.1577-5.1934,0-.8027-.0737-1.5601-.1392-2.2285-.104-1.0703-.1943-1.9946.0669-2.5166,1.1362-2.2725,1.6382-4.6802,1.4131-6.7788-.2368-2.208-1.2603-3.9185-2.8076-4.6919-2.4258-1.2129-5.0503.2036-6.9673,1.2373-.4214.2275-.8232.4453-1.1963.6191-.6562.3052-1.5698.5391-2.3711.7021,1.9487-6.9404,8.3184-12.0508,15.8735-12.0508Z"/></svg>