<?xml version="1.0" encoding="UTF-8"?><svg id="a" xmlns="http://www.w3.org/2000/svg" viewBox="0 0 72 72"><defs><style>.c{fill:#161d26;}</style></defs><path class="c" d="M28.209,30.8008c.7427-.6406,1.7104-.7842,2.3457-.8008h1.4053c.5518,0,1-.4478,1-1v-1c0-.5522-.4482-1-1-1h-1.4053c-.6353-.0166-1.603-.1602-2.3457-.8008-.7676-.6606-1.187-1.769-1.248-3.2974,0-.0015-.001-.0024-.001-.0039v-.8979c0-.5522-.4478-1-1-1h-1c-.5522,0-1,.4478-1,1v.8926c0,.002-.0015.0039-.0015.0063-.061,1.5283-.4805,2.6367-1.248,3.2974-.769.6631-1.7827.7949-2.4155.8037h-.0068c-.0879.001-.1689,0-.2402-.0029-.0063,0-.0117.0029-.0181.0029h-1.0698c-.5527,0-1,.4478-1,1v1c0,.5522.4473,1,1,1h1.4043c.6357.0166,1.6035.1602,2.3462.8008.7676.6606,1.187,1.769,1.248,3.2974,0,.002.001.0034.0015.0054v.8965c0,.5522.4473,1,1,1h1c.5518,0,1-.4478,1-1v-.8965c0-.002.001-.0034.001-.0054.061-1.5283.4805-2.6367,1.248-3.2974ZM25.46,29.3711c-.2471-.3159-.5176-.6104-.8247-.8711-.0005-.0005-.0015-.001-.002-.0015.0005-.0005.0015-.001.002-.0015.3066-.2603.5767-.5542.8232-.8696.2471.3164.5181.6118.8257.8726-.3076.2607-.5776.5552-.8242.8711Z"/><path class="c" d="M46.4595,27c-1.627,0-3.1328.1616-4.5386.4458-.3994-9.8257-6.3374-15.4458-16.4614-15.4458-10.4858,0-16.5,6.0146-16.5,16.5029s6.0142,16.4971,16.5,16.4971c1.6084,0,3.1289-.145,4.5391-.4316.4023,9.8169,6.3398,15.4316,16.4609,15.4316,10.4863,0,16.5-6.0127,16.5-16.4971s-6.0137-16.5029-16.5-16.5029ZM11.9595,28.5029c0-8.834,4.6685-13.5029,13.5-13.5029,8.7671,0,13.4253,4.606,13.4937,13.3135-5.2598,2.0864-8.3843,6.6138-8.9097,13.1582-1.3862.3442-2.9189.5283-4.584.5283-8.8315,0-13.5-4.667-13.5-13.4971ZM46.4595,57c-8.8315,0-13.5-4.667-13.5-13.4971,0-6.6919,2.6841-10.9878,7.8223-12.6807.0723-.0171.144-.0347.2119-.0615,1.5962-.498,3.4136-.7607,5.4658-.7607,8.832,0,13.5,4.6689,13.5,13.5029s-4.668,13.4971-13.5,13.4971Z"/><path class="c" d="M40.9244,11.0024h6.0846c.5559,0,1.0071.4513,1.0071,1.0071v.9861c0,.5557-.4511,1.0068-1.0068,1.0068h-6.0853c-.5555,0-1.0065-.451-1.0065-1.0065v-.9867c0-.5557.4512-1.0069,1.0069-1.0069Z" transform="translate(4.0358 34.7488) rotate(-44.9967)"/><path class="c" d="M37.0081,5.3623h.986c.5559,0,1.0072.4513,1.0072,1.0072v4.3088c0,.5555-.451,1.0065-1.0065,1.0065h-.9872c-.5557,0-1.0068-.4511-1.0068-1.0068v-4.3083c0-.556.4514-1.0073,1.0073-1.0073Z"/><rect class="c" x="43.5593" y="17.9434" width="6.3225" height="3.0005" rx="1.0071" ry="1.0071"/><rect class="c" x="23.984" y="57.9865" width="8.0986" height="2.9999" rx="1.0068" ry="1.0068" transform="translate(-33.8525 37.2457) rotate(-45)"/><rect class="c" x="32.9988" y="60.3042" width="3.0005" height="6.3228" rx="1.007" ry="1.007"/><rect class="c" x="22.1182" y="51.0452" width="6.3228" height="3.0005" rx="1.0068" ry="1.0068"/><path class="c" d="M48.543,42.2363l-3.6895-.6523c-.7441-.1074-1.2842-.7422-1.2861-1.5107.001-.4395.1543-.8057.4688-1.1172.5098-.5049,1.3916-.8086,2.3125-.8047h.1084c1.1699,0,2.2656.7432,2.666,1.8086.291.7754,1.1562,1.1689,1.9307.877.7764-.291,1.1689-1.1562.8779-1.9316-.6768-1.8027-2.2334-3.1143-4.0771-3.5684v-1.1943c0-.5518-.4473-1-1-1h-1c-.5518,0-1,.4482-1,1v1.166c-1.1367.2461-2.1797.7734-2.9297,1.5166-.8848.876-1.3535,1.9951-1.3574,3.2373v.0225c.0068,2.2686,1.627,4.1465,3.8096,4.4609l3.6895.6523c.7451.1074,1.2861.7441,1.2861,1.5137v.1064c-.1826,1.4199-1.5488,2.0449-2.7812,2.0303h-.1084c-1.168,0-2.2646-.7451-2.666-1.8105-.292-.7754-1.1572-1.167-1.9326-.875s-1.167,1.1572-.875,1.9326c.6533,1.7334,2.1162,3.0176,3.8652,3.5176v1.2441c0,.5518.4482,1,1,1h1c.5527,0,1-.4482,1-1v-1.127c2.4336-.4551,4.2461-2.2686,4.4902-4.6758.0049-.0508.0078-.1006.0078-.1514v-.1914c0-2.2744-1.6221-4.1602-3.8096-4.4756Z"/></svg>