<?xml version="1.0" encoding="UTF-8"?><svg id="a" xmlns="http://www.w3.org/2000/svg" viewBox="0 0 72 72"><defs><style>.c{fill:#161d26;}</style></defs><path class="c" d="M54.0001,63H16.6363c-4.502,0-6.1362-3.6699-6.1362-6.1365v-27.8635c0-1.6543,1.3457-3,3-3h6v-14c0-1.6543,1.3457-3,3-3h36c1.6543,0,3,1.3457,3,3v43.5c0,4.1355-3.3645,7.5-7.5,7.5ZM21.7765,60h32.2236c2.4812,0,4.5-2.0188,4.5-4.5V12H22.5001v44.8635c0,1.2615-.2754,2.2981-.7236,3.1365ZM13.5001,29v27.8635c0,.321.0879,3.1365,3.1362,3.1365.6616-.0125,2.8638-.2756,2.8638-3.1365v-27.8635h-6Z"/><rect class="c" x="28.5001" y="21" width="3" height="12" rx="1" ry="1"/><rect class="c" x="37.5001" y="21" width="15" height="3" rx="1" ry="1"/><rect class="c" x="37.5" y="30" width="15" height="3" rx="1" ry="1"/><rect class="c" x="28.5001" y="39" width="24" height="3" rx="1" ry="1"/><rect class="c" x="28.5" y="48" width="24" height="3" rx="1" ry="1"/></svg>