<?xml version="1.0" encoding="UTF-8"?><svg id="a" xmlns="http://www.w3.org/2000/svg" viewBox="0 0 72 72"><defs><style>.c,.d{fill:#161d26;}.d{opacity:.99;}</style></defs><path class="c" d="M52.5001,57H19.5001c-1.6543,0-3-1.3457-3-3V12c0-1.6543,1.3457-3,3-3h33c1.6543,0,3,1.3457,3,3v18h-3V12H19.5001v42h33v-12h3v12c0,1.6543-1.3457,3-3,3Z"/><path class="c" d="M46.5001,63H13.5001c-1.6543,0-3-1.3247-3-2.9531V16c0-.5523.4477-1,1-1h1c.5523,0,1,.4477,1,1v44.0469l33-.0469v-5.7656h3v5.8125c0,1.6284-1.3457,2.9531-3,2.9531Z"/><rect class="c" x="22.5001" y="15" width="27" height="3" rx="1" ry="1"/><rect class="d" x="22.5001" y="21" width="27" height="3" rx="1" ry="1"/><rect class="d" x="22.5001" y="48" width="27" height="3" rx="1" ry="1"/><path class="c" d="M65,34.5h-3.6509c-.6973-3.4189-3.7271-6-7.3491-6-3.1729,0-5.8853,1.9839-6.9795,4.7734-.832-.4531-1.7104-.6875-2.6313-.6875-1.1128,0-2.0864.3408-2.8809.7661-1.0732-2.8306-3.8057-4.8521-7.0083-4.8521-3.6216,0-6.6519,2.5811-7.3486,6h-3.6514c-.5522,0-1,.4478-1,1v1c0,.5522.4478,1,1,1h3.6514c.6968,3.4189,3.7271,6,7.3486,6,3.9082,0,7.124-3.0059,7.4658-6.8271.4746-.4111,1.3975-1.0781,2.437-1.0869.7173.0039,1.4316.375,2.1304,1.063.3306,3.8325,3.5503,6.8511,7.4668,6.8511,3.6221,0,6.6519-2.5811,7.3491-6h3.6509c.5522,0,1-.4478,1-1v-1c0-.5522-.4478-1-1-1ZM34.5,40.5c-2.481,0-4.5-2.0186-4.5-4.5s2.019-4.5,4.5-4.5,4.5,2.0186,4.5,4.5-2.0186,4.5-4.5,4.5ZM54,40.5c-2.481,0-4.5-2.0186-4.5-4.5s2.019-4.5,4.5-4.5,4.5,2.0186,4.5,4.5-2.0186,4.5-4.5,4.5Z"/></svg>