<?xml version="1.0" encoding="UTF-8"?>
<svg width="24px" height="18px" viewBox="0 0 24 18" version="1.1" xmlns="http://www.w3.org/2000/svg" xmlns:xlink="http://www.w3.org/1999/xlink">
    <title>Icon / Flags / Saudi Arabia </title>
    <g id="Icon-/-Flags-/-Saudi-Arabia-" stroke="none" stroke-width="1" fill="none" fill-rule="evenodd">
        <rect id="Rectangle-Copy" fill="#24B47E" x="0" y="0" width="24" height="18" rx="2"></rect>
        <path d="M4.5,12 L15.5,12 C15.7761424,12 16,11.7761424 16,11.5 C16,11.2238576 16.2238576,11 16.5,11 C16.7761424,11 17,11.2238576 17,11.5 C17,11.7761424 17.2238576,12 17.5,12 L19,12 C19.5522847,12 20,12.4477153 20,13 L20,13.5 C20,13.7761424 19.7761424,14 19.5,14 C19.2238576,14 19,13.7761424 19,13.5 C19,13.2238576 18.7761424,13 18.5,13 L17.5,13 C17.2238576,13 17,13.2238576 17,13.5 C17,13.7761424 16.7761424,14 16.5,14 C16.2238576,14 16,13.7761424 16,13.5 C16,13.2238576 15.7761424,13 15.5,13 L4.5,13 C4.22385763,13 4,12.7761424 4,12.5 C4,12.2238576 4.22385763,12 4.5,12 Z" id="Rectangle" fill="#EDEDED"></path>
        <rect id="Rectangle" fill="#FAFAFA" x="5" y="4" width="1" height="4" rx="0.5"></rect>
        <rect id="Rectangle-Copy-50" fill="#FAFAFA" x="9" y="4" width="1" height="2" rx="0.5"></rect>
        <rect id="Rectangle-Copy-53" fill="#FAFAFA" x="18" y="4" width="1" height="2" rx="0.5"></rect>
        <path d="M20.5,4 C20.7761424,4 21,4.22385763 21,4.5 L21,8.5 C21,9.32842712 20.3284271,10 19.5,10 L18.5,10 C18.2238576,10 18,9.77614237 18,9.5 C18,9.22385763 18.2238576,9 18.5,9 L19,9 C19.5522847,9 20,8.55228475 20,8 L20,4.5 C20,4.22385763 20.2238576,4 20.5,4 Z" id="Rectangle-Copy-54" fill="#FAFAFA"></path>
        <path d="M11.5,4.5 C11.7761424,4.77614237 12.2238576,4.77614237 12.5,4.5 C12.7761424,4.22385763 13.2238576,4.22385763 13.5,4.5 C13.7761424,4.77614237 14.2238576,4.77614237 14.5,4.5 C14.6143819,4.38561808 14.7998316,4.38561808 14.9142136,4.5 C14.9691417,4.55492813 15,4.62942667 15,4.70710678 L15,5.5 C15,5.77614237 14.7761424,6 14.5,6 L14.4142136,6 C14.1489971,6 13.8946432,5.89464316 13.7071068,5.70710678 L13.5,5.5 C13.2238576,5.22385763 12.7761424,5.22385763 12.5,5.5 L12.2928932,5.70710678 C12.1053568,5.89464316 11.8510029,6 11.5857864,6 L11.5,6 C11.2238576,6 11,5.77614237 11,5.5 L11,4.70710678 C11,4.54534632 11.1311328,4.41421356 11.2928932,4.41421356 C11.3705733,4.41421356 11.4450719,4.44507187 11.5,4.5 Z" id="Rectangle" fill="#FAFAFA"></path>
        <rect id="Rectangle-Copy-52" fill="#FAFAFA" x="16" y="4" width="1" height="6" rx="0.5"></rect>
        <path d="M9.5,9 L10,9 C10.5522847,9 11,8.55228475 11,8 C11,7.44771525 11.4477153,7 12,7 L14.5,7 C14.7761424,7 15,7.22385763 15,7.5 C15,7.77614237 14.7761424,8 14.5,8 L12.5,8 C12.2238576,8 12,8.22385763 12,8.5 C12,8.77614237 12.2238576,9 12.5,9 L13.5,9 C13.7761424,9 14,9.22385763 14,9.5 C14,9.77614237 13.7761424,10 13.5,10 L9.5,10 C9.22385763,10 9,9.77614237 9,9.5 C9,9.22385763 9.22385763,9 9.5,9 Z" id="Rectangle-Copy-51" fill="#FAFAFA"></path>
        <path d="M7.5,4 C7.77614237,4 8,4.22385763 8,4.5 L8,6 C8,6.55228475 8.44771525,7 9,7 L9.5,7 C9.77614237,7 10,7.22385763 10,7.5 C10,7.77614237 9.77614237,8 9.5,8 L9,8 C8.44771525,8 8,8.44771525 8,9 C8,9.55228475 7.55228475,10 7,10 L4.5,10 C3.67157288,10 3,9.32842712 3,8.5 L3,7.5 C3,7.22385763 3.22385763,7 3.5,7 C3.77614237,7 4,7.22385763 4,7.5 L4,8 C4,8.55228475 4.44771525,9 5,9 L5.5,9 C6.32842712,9 7,8.32842712 7,7.5 L7,4.5 C7,4.22385763 7.22385763,4 7.5,4 Z" id="Rectangle-Copy-49" fill="#FAFAFA"></path>
    </g>
</svg>