<?xml version="1.0" encoding="UTF-8"?><svg id="a" xmlns="http://www.w3.org/2000/svg" viewBox="0 0 72 72"><defs><style>.c{fill:#161d26;}</style></defs><path class="c" d="M66.0742,26.7654c-.04-.0188-.0806-.0361-.1221-.0515l-28.0601-10.418c-.8779-.4019-1.9058-.4019-2.7837,0L7.0483,26.7139c-.0415.0154-.0825.0327-.1221.0515-1.1899.5657-1.9287,1.7361-1.9287,3.0547s.7388,2.489,1.9287,3.0547c.04.019.0806.0361.1221.0518l2.7217,1.0095v11.1953c-.9224.436-1.4302,1.3252-1.4302,2.6187,0,1.8799,1.0498,2.9299,2.9302,2.9299s2.9297-1.05,2.9297-2.9299c0-1.2886-.5039-2.1758-1.4194-2.6138v-10.084l2.9897,1.1091v17.4087c0,.6233.3916,1.158.9385,1.3843,5.8467,2.7705,13.0317,4.2957,20.2417,4.2957,7.0259,0,13.9268-1.4944,19.9565-4.3218.5269-.2471.8633-.7764.8633-1.3582v-17.6062l8.1821-3.0376c.0415-.0154.082-.0327.1221-.0515,1.1895-.5657,1.9282-1.7361,1.9282-3.0547s-.7388-2.489-1.9282-3.0547ZM54.77,52.604c-5.4258,2.3875-11.5654,3.646-17.8198,3.646-6.4565,0-12.8716-1.292-18.1802-3.6499v-15.3259l16.2446,6.0251.0151.0076c.4604.2256.9653.3384,1.4702.3384.4766,0,.9531-.1003,1.3921-.3013l16.8779-6.2664v15.5264ZM64.8247,30.1448l-28.0366,10.4089c-.0469.0176-.0933.0374-.1382.0593-.0723.0359-.1562.0439-.2344.0239-.0649-.0356-.1328-.0671-.2036-.0935l-18.0454-6.6931,17.5537-2.4104c.5396-.0801.9297-.5801.8496-1.1299l-.1396-.99c-.0801-.54-.5801-.9299-1.1304-.8501l-23.083,3.1736-4.041-1.4988c-.146-.0872-.1782-.2227-.1782-.3247s.0322-.2375.1782-.3247l28.0361-10.4092c.0474-.0176.0933-.0374.1382-.0593.0938-.0459.2061-.0459.2998,0,.0449.022.0913.0417.1382.0593l28.0366,10.4092c.146.0872.1777.2227.1777.3247s-.0317.2375-.1777.3247Z"/></svg>