<?xml version="1.0" encoding="UTF-8"?>
<svg id="_图层_2" data-name="图层 2" xmlns="http://www.w3.org/2000/svg" xmlns:xlink="http://www.w3.org/1999/xlink" viewBox="0 0 72 72">
  <defs>
    <style>
      .cls-1 {
        clip-path: url(#clippath);
      }

      .cls-2 {
        stroke-width: 0px;
      }

      .cls-2, .cls-3 {
        fill: none;
      }

      .cls-3 {
        fill-rule: evenodd;
        stroke: #161d26;
        stroke-linecap: round;
        stroke-linejoin: round;
        stroke-width: 3px;
      }
    </style>
    <clipPath id="clippath">
      <rect class="cls-2" width="72" height="72"/>
    </clipPath>
  </defs>
  <g id="Layer_1" data-name="Layer 1">
    <g class="cls-1">
      <g>
        <polyline class="cls-3" points="13.5 46.5 13.5 40.49 18.22 40.49 26.59 43.46 58.5 43.5 62.81 47.7 62.81 55.57 9.19 55.57 9.19 46.5 17.89 46.5 42.22 55.57"/>
        <path class="cls-3" d="M15.4,39.94l-6.21-9.66s4.73-.87,10.18.21"/>
        <path class="cls-3" d="M20.25,40.5l-1.34-15.34s7.14,1.4,8.63,3.46"/>
        <path class="cls-3" d="M29.39,42.5l-3.22-24.03s17.5,1.98,21.47,23.37"/>
        <path class="cls-3" d="M50.65,43.49l5.25-13.69s-6.36-1.34-11.96,1.48"/>
        <path class="cls-3" d="M54.9,43.24l7.91-6.77s-3.44-2.39-7.65-2.72"/>
      </g>
    </g>
  </g>
</svg>