<?xml version="1.0" encoding="UTF-8"?>
<svg id="_图层_2" data-name="图层 2" xmlns="http://www.w3.org/2000/svg" xmlns:xlink="http://www.w3.org/1999/xlink" viewBox="0 0 72 72">
  <defs>
    <style>
      .cls-1 {
        clip-path: url(#clippath);
      }

      .cls-2, .cls-3 {
        stroke-width: 0px;
      }

      .cls-2, .cls-4 {
        fill: none;
      }

      .cls-3 {
        fill: #161d26;
      }

      .cls-4 {
        stroke: #161d26;
        stroke-linecap: round;
        stroke-linejoin: round;
        stroke-width: 3px;
      }
    </style>
    <clipPath id="clippath">
      <rect class="cls-2" width="72" height="72"/>
    </clipPath>
  </defs>
  <g id="Layer_1" data-name="Layer 1">
    <g class="cls-1">
      <path class="cls-4" d="M42.26,25.22s-2.86,15.29-18,21.24v9.96s15.54-.56,18.69-17.27c0,0,.49-6.18,0-9.4l-.68-4.53Z"/>
      <polyline class="cls-4" points="43.61 41.21 49.91 31.01 46.92 28.03 43.16 31.3"/>
      <path class="cls-4" d="M43.61,41.21s3.69,8.42,5.03,10.18h-5.47l4.01,14.31"/>
      <line class="cls-4" x1="32.11" y1="54.38" x2="42.52" y2="54.38"/>
      <line class="cls-4" x1="28.02" y1="65.53" x2="28.02" y2="56.41"/>
      <path class="cls-4" d="M26.64,45.2s1.91-9.85,2.24-15.38c0,0-5.17-1.96-8.06-5.61,0,0-1.78-1.49.71-3.42"/>
      <path class="cls-4" d="M26.3,20.1s10.93,10.21,12.58,10.77"/>
      <line class="cls-4" x1="40.2" y1="21.16" x2="43.69" y2="28.03"/>
      <path class="cls-4" d="M32.45,25.48s3.49-2.06,4.87-3.84"/>
      <path class="cls-4" d="M37.27,21.01h0c-2.02,0-3.68-1.54-3.68-3.43v-1.72c0-1.88,1.65-3.43,3.68-3.43h0c2.02,0,3.68,1.54,3.68,3.43v1.72c0,1.88-1.65,3.43-3.68,3.43Z"/>
      <path class="cls-4" d="M23.4,4.5s-7.56,3.89-3.62,6.3h4.22s2.32-4.55-.6-6.3Z"/>
      <polygon class="cls-4" points="17.51 11.06 25.55 11.06 26.58 19.52 20.72 22.26 20.72 14.18 17.51 11.06"/>
      <rect class="cls-3" x="34.36" y="8.03" width="5.82" height="3" rx="1" ry="1" transform="translate(46.81 -27.74) rotate(90)"/>
      <rect class="cls-3" x="39.26" y="9.86" width="5.82" height="3" rx="1" ry="1" transform="translate(80.01 -10.43) rotate(135)"/>
      <rect class="cls-3" x="40.95" y="14.56" width="5.82" height="3" rx="1" ry="1" transform="translate(87.72 32.11) rotate(180)"/>
      <rect class="cls-3" x="29.54" y="9.86" width="5.82" height="3" rx="1" ry="1" transform="translate(17.53 -19.62) rotate(45)"/>
      <rect class="cls-3" x="28.07" y="14.56" width="5.82" height="3" rx="1" ry="1"/>
      <rect class="cls-3" x="19.24" y="64.5" width="32.86" height="3" rx="1" ry="1"/>
    </g>
  </g>
</svg>