<?xml version="1.0" encoding="UTF-8"?>
<svg id="_图层_2" data-name="图层 2" xmlns="http://www.w3.org/2000/svg" xmlns:xlink="http://www.w3.org/1999/xlink" viewBox="0 0 72 72">
  <defs>
    <style>
      .cls-1 {
        stroke-miterlimit: 10;
      }

      .cls-1, .cls-2, .cls-3 {
        fill: none;
      }

      .cls-1, .cls-3 {
        stroke: #161d26;
        stroke-linecap: round;
        stroke-width: 3px;
      }

      .cls-4 {
        clip-path: url(#clippath);
      }

      .cls-2, .cls-5 {
        stroke-width: 0px;
      }

      .cls-6 {
        clip-path: url(#clippath-1);
      }

      .cls-7 {
        clip-path: url(#clippath-4);
      }

      .cls-8 {
        clip-path: url(#clippath-3);
      }

      .cls-9 {
        clip-path: url(#clippath-2);
      }

      .cls-10 {
        clip-path: url(#clippath-6);
      }

      .cls-11 {
        clip-path: url(#clippath-5);
      }

      .cls-5 {
        fill: #161d26;
      }

      .cls-3 {
        stroke-linejoin: round;
      }
    </style>
    <clipPath id="clippath">
      <rect class="cls-2" width="72" height="72"/>
    </clipPath>
    <clipPath id="clippath-1">
      <rect class="cls-2" x="12.43" y="27.04" width="5.86" height="13.18"/>
    </clipPath>
    <clipPath id="clippath-2">
      <rect class="cls-2" x="18.29" y="27.04" width="5.86" height="13.18"/>
    </clipPath>
    <clipPath id="clippath-3">
      <rect class="cls-2" x="47.84" y="27.04" width="5.86" height="13.18"/>
    </clipPath>
    <clipPath id="clippath-4">
      <rect class="cls-2" x="53.7" y="27.04" width="5.86" height="13.18"/>
    </clipPath>
    <clipPath id="clippath-5">
      <rect class="cls-2" x="29.32" y="44.93" width="6.68" height="18.22"/>
    </clipPath>
    <clipPath id="clippath-6">
      <rect class="cls-2" x="36" y="44.93" width="6.68" height="18.22"/>
    </clipPath>
  </defs>
  <g id="Layer_1" data-name="Layer 1">
    <g class="cls-4">
      <g>
        <rect class="cls-3" x="12.58" y="39.15" width="46.84" height="22.35"/>
        <rect class="cls-3" x="25.97" y="34.5" width="20.05" height="26.41"/>
        <rect class="cls-2" x="24.16" y="8.96" width="11.84" height="28.74"/>
        <rect class="cls-2" x="36" y="8.96" width="11.84" height="28.74"/>
        <g>
          <g id="_镜像重复_" data-name="&amp;lt;镜像重复&amp;gt;">
            <g class="cls-6">
              <path class="cls-3" d="M14.38,38.72s-1.27-2.85.47-5.1c.93-1.21,1.59-1.27,3.04-2.57.24-.22.41-.51.42-.83l.03-1.68"/>
            </g>
          </g>
          <g id="_镜像重复_-2" data-name="&amp;lt;镜像重复&amp;gt;">
            <g class="cls-9">
              <path class="cls-3" d="M22.2,38.72s1.27-2.85-.47-5.1c-.93-1.21-1.59-1.27-3.04-2.57-.24-.22-.41-.51-.42-.83l-.03-1.68"/>
            </g>
          </g>
        </g>
        <g>
          <g id="_镜像重复_-3" data-name="&amp;lt;镜像重复&amp;gt;">
            <g class="cls-8">
              <path class="cls-3" d="M49.79,38.72s-1.27-2.85.47-5.1c.93-1.21,1.59-1.27,3.04-2.57.24-.22.41-.51.42-.83l.03-1.68"/>
            </g>
          </g>
          <g id="_镜像重复_-4" data-name="&amp;lt;镜像重复&amp;gt;">
            <g class="cls-7">
              <path class="cls-3" d="M57.61,38.72s1.27-2.85-.47-5.1c-.93-1.21-1.59-1.27-3.04-2.57-.24-.22-.41-.51-.42-.83l-.03-1.68"/>
            </g>
          </g>
        </g>
        <g>
          <g id="_镜像重复_-5" data-name="&amp;lt;镜像重复&amp;gt;">
            <g class="cls-11">
              <path class="cls-1" d="M30.82,60.91v-8.63c0-.49.09-1.33.29-1.77.37-.79,1.28-1.94,2.6-2.71,1.88-1.1,2.29-1.38,2.29-1.38"/>
            </g>
          </g>
          <g id="_镜像重复_-6" data-name="&amp;lt;镜像重复&amp;gt;">
            <g class="cls-10">
              <path class="cls-1" d="M41.18,60.91v-8.63c0-.49-.09-1.33-.29-1.77-.37-.79-1.28-1.94-2.6-2.71-1.88-1.1-2.29-1.38-2.29-1.38"/>
            </g>
          </g>
        </g>
        <path class="cls-5" d="M45.36,21.6c-1.43-1.85-2.63-2.69-4.03-3.67-.94-.66-2-1.4-3.37-2.63-.18-.16-.48-.49-.49-.88l-.08-3.99c-.01-.78-.62-1.4-1.4-1.46h0c-.77.05-1.38.67-1.4,1.46l-.08,3.99c0,.4-.31.73-.49.88-1.37,1.23-2.43,1.97-3.37,2.63-1.4.98-2.6,1.82-4.03,3.67-4.61,5.97-1.42,13.3-1.29,13.61.25.56.8.89,1.37.89.2,0,.41-.04.61-.13.76-.33,1.1-1.22.76-1.98-.03-.06-2.58-6.02.92-10.56,1.15-1.49,2.08-2.14,3.37-3.04.95-.66,2.13-1.49,3.61-2.82,1.49,1.32,2.66,2.15,3.61,2.82.73.51,1.34.94,1.94,1.48.47.42.93.91,1.43,1.56,3.5,4.53.95,10.48.92,10.56-.33.76,0,1.64.76,1.98.2.09.41.13.61.13.57,0,1.12-.33,1.37-.89.14-.31,3.32-7.64-1.29-13.61Z"/>
        <path class="cls-5" d="M35.5,8.63h1c.55,0,1,.45,1,1v6.28h-3v-6.28c0-.55.45-1,1-1Z"/>
        <path class="cls-5" d="M17.79,27.04h1c.55,0,1,.45,1,1v3.05h-3v-3.05c0-.55.45-1,1-1Z"/>
        <path class="cls-5" d="M53.2,27.04h1c.55,0,1,.45,1,1v3.05h-3v-3.05c0-.55.45-1,1-1Z"/>
      </g>
    </g>
  </g>
</svg>