<?xml version="1.0" encoding="UTF-8"?>
<svg id="_图层_2" data-name="图层 2" xmlns="http://www.w3.org/2000/svg" xmlns:xlink="http://www.w3.org/1999/xlink" viewBox="0 0 72 72">
  <defs>
    <style>
      .cls-1 {
        clip-path: url(#clippath);
      }

      .cls-2, .cls-3 {
        stroke-width: 0px;
      }

      .cls-2, .cls-4 {
        fill: none;
      }

      .cls-5 {
        clip-path: url(#clippath-1);
      }

      .cls-6 {
        clip-path: url(#clippath-4);
      }

      .cls-7 {
        clip-path: url(#clippath-3);
      }

      .cls-8 {
        clip-path: url(#clippath-2);
      }

      .cls-3 {
        fill: #161d26;
      }

      .cls-4 {
        stroke: #161d26;
        stroke-linecap: round;
        stroke-linejoin: round;
        stroke-width: 3px;
      }
    </style>
    <clipPath id="clippath">
      <rect class="cls-2" width="72" height="72"/>
    </clipPath>
    <clipPath id="clippath-1">
      <rect class="cls-2" x="16.5" y="7.19" width="19.5" height="60.27"/>
    </clipPath>
    <clipPath id="clippath-2">
      <rect class="cls-2" x="36" y="7.19" width="19.5" height="60.27"/>
    </clipPath>
    <clipPath id="clippath-3">
      <rect class="cls-2" x="36" y="7.19" height="57.66"/>
    </clipPath>
    <clipPath id="clippath-4">
      <rect class="cls-2" x="36" y="7.19" height="57.66"/>
    </clipPath>
  </defs>
  <g id="Layer_1" data-name="Layer 1">
    <g class="cls-1">
      <g>
        <g>
          <g id="_镜像重复_" data-name="&amp;lt;镜像重复&amp;gt;">
            <g class="cls-5">
              <path class="cls-4" d="M36,10.48h-3.01s-1.79,33.27-6.98,41.52"/>
              <path class="cls-4" d="M36,52.55h-13.1s-.4,5.5-4.9,13.42h8.3s1.47-8.16,9.7-8.16"/>
              <polyline class="cls-4" points="32.61 52 34.29 44.51 35.95 44.51"/>
              <line class="cls-4" x1="30.88" y1="39" x2="36" y2="39"/>
            </g>
          </g>
          <g id="_镜像重复_-2" data-name="&amp;lt;镜像重复&amp;gt;">
            <g class="cls-8">
              <g>
                <g id="_镜像重复_-3" data-name="&amp;lt;镜像重复&amp;gt;">
                  <g class="cls-7">
                    <polyline class="cls-2" points="36 7.19 36 11.66 36 64.85"/>
                  </g>
                </g>
                <g id="_镜像重复_-4" data-name="&amp;lt;镜像重复&amp;gt;">
                  <g class="cls-6">
                    <polyline class="cls-2" points="36 7.19 36 11.66 36 64.85"/>
                  </g>
                </g>
              </g>
              <path class="cls-4" d="M36,10.48h3.01s1.79,33.27,6.98,41.52"/>
              <path class="cls-4" d="M36,52.55h13.1s.4,5.5,4.9,13.42h-8.3s-1.47-8.16-9.7-8.16"/>
              <polyline class="cls-4" points="39.39 52 37.71 44.51 36.05 44.51"/>
              <line class="cls-4" x1="41.12" y1="39" x2="36" y2="39"/>
            </g>
          </g>
        </g>
        <path class="cls-3" d="M35.5,3.49h1c.55,0,1,.45,1,1v6.4h-3v-6.4c0-.55.45-1,1-1Z"/>
      </g>
    </g>
  </g>
</svg>