<?xml version="1.0" encoding="UTF-8"?><svg id="a" xmlns="http://www.w3.org/2000/svg" viewBox="0 0 72 72"><defs><style>.c{fill:#161d26;}</style></defs><path class="c" d="M36.0703,21.0002c1.6455,0,3.1841.1541,4.5879.4585.5278.1145,1.0547-.1812,1.1992-.7014l.269-.9658c.1562-.561-.1992-1.1255-.7681-1.2507-1.6313-.3586-3.4043-.5405-5.2881-.5405-11.3799,0-17.9404,6.5029-18,17.8486v.1514c0,6.9033,2.4414,12.1445,7.0635,15.1592,2.9023,1.8848,6.582,2.8408,10.9365,2.8408,4.4727,0,8.2256-1.0078,11.1494-2.9912,4.4814-3.0146,6.8506-8.2041,6.8506-15.0088v-.1592c-.0103-1.8545-.1968-3.6008-.5566-5.2068-.1274-.5679-.6938-.9207-1.2539-.7622l-.9639.2727c-.52.147-.8135.675-.6973,1.2024.3047,1.3794.4629,2.8904.4717,4.5017v.1514c0,5.8418-1.8584,10.0537-5.5293,12.5225-2.4238,1.6436-5.6104,2.4775-9.4707,2.4775-3.7646,0-6.8945-.793-9.3008-2.3545-3.7812-2.4678-5.6992-6.7217-5.6992-12.6455v-.1436c.0498-9.5801,5.377-14.8564,15-14.8564Z"/><path class="c" d="M60.873,26.877l-.9648.259c-.5244.1406-.8291.6675-.7075,1.1965.5166,2.2517.7856,4.7251.7993,7.364v.2334c0,9.1875-3.0771,16.1123-8.9043,20.0303-3.8818,2.6338-8.9609,3.9697-15.0957,3.9697-5.9785,0-10.9658-1.2695-14.8203-3.7734-6.0059-3.916-9.1797-10.9102-9.1797-20.2266v-.2256c.0801-15.3311,8.6035-23.7744,24-23.7744,2.7593,0,5.3325.2744,7.6655.8167.5278.1228,1.0547-.1799,1.1968-.7031l.2632-.968c.147-.5413-.1748-1.1084-.7207-1.2366-2.5723-.6038-5.394-.9089-8.4048-.9089-17.0693,0-26.9111,9.7529-27,26.7666v.2334c0,10.3789,3.6445,18.2422,10.543,22.7412,4.3516,2.8262,9.8887,4.2588,16.457,4.2588,6.7461,0,12.3916-1.5098,16.7744-4.4834,6.6895-4.498,10.2256-12.2842,10.2256-22.5166v-.2412c-.0151-2.8884-.314-5.604-.8896-8.0872-.127-.5469-.6948-.8701-1.2373-.7246Z"/><path class="c" d="M45,24.8789l-3.1611,3.1611c-1.52-1.0044-3.4795-1.54-5.8389-1.54-4.8247,0-7.1074,2.1621-8.1626,3.9583-.271.4468-.4839.8882-.6416,1.3235-.4619,1.2004-.6958,2.6196-.6958,4.2183,0,6.0374,3.4624,9.5,9.5,9.5,2.1826,0,4.041-.4402,5.5854-1.3467.1606-.104.3218-.2085.4961-.3286,1.5596-1.1152,3.4185-3.3779,3.4185-7.8247,0-2.3591-.5356-4.3186-1.54-5.8386l3.2236-3.2234h7.4497c.6675,0,1.2954-.26,1.7676-.7324l6.4854-6.4854c.7178-.7173.9302-1.7869.542-2.7244s-1.2949-1.5432-2.3096-1.5432h-2.4497l2.3569-2.3574c.3906-.3904.3906-1.0234,0-1.4141l-.707-.707c-.3906-.3906-1.0239-.3906-1.4141,0l-2.4194,2.4194v-2.45c0-1.0146-.606-1.9214-1.5435-2.3096-.938-.3884-2.0068-.1755-2.7241.542l-6.4854,6.4854c-.4722.4722-.7324,1.0999-.7324,1.7676v7.45ZM40.3594,41.3684c-.1294.0886-.2671.1775-.353.2349-1.0156.595-2.3638.8967-4.0063.8967-4.374,0-6.5-2.1262-6.5-6.5,0-1.229.167-2.2861.5054-3.1677.1001-.2747.23-.5427.4082-.8369.9727-1.6558,2.8525-2.4954,5.5864-2.4954,1.4863,0,2.6836.2542,3.6489.7297l-4.7856,4.7859c-.3906.3906-.3906,1.0237,0,1.4143l.707.707c.3901.3906,1.0234.3906,1.4141,0l4.7861-4.7859c.4756.9653.7295,2.1626.7295,3.6489,0,2.5461-.728,4.3577-2.1406,5.3684ZM55.6689,18.4526h4.2427l-5.4854,5.4854h-4.2427l5.4854-5.4854ZM48,17.6362l5.4854-5.4854v4.2427l-5.4854,5.4854v-4.2427Z"/></svg>