<?xml version="1.0" encoding="UTF-8"?>
<svg width="24px" height="18px" viewBox="0 0 24 18" version="1.1" xmlns="http://www.w3.org/2000/svg" xmlns:xlink="http://www.w3.org/1999/xlink">
    <title>Icon / Flags / United Arab Emirates</title>
    <g id="Icon-/-Flags-/-United-Arab-Emirates" stroke="none" stroke-width="1" fill="none" fill-rule="evenodd">
        <rect id="Rectangle" fill="#FAFAFA" x="7" y="6" width="17" height="6"></rect>
        <path d="M7,12 L24,12 L24,16 C24,17.1045695 23.1045695,18 22,18 L7,18 L7,18 L7,12 Z" id="Rectangle-Copy" fill="#333333"></path>
        <path d="M2,0 L7,0 L7,0 L7,18 L2,18 C0.8954305,18 1.3527075e-16,17.1045695 0,16 L0,2 C-1.3527075e-16,0.8954305 0.8954305,2.02906125e-16 2,0 Z" id="Rectangle" fill="#E25950"></path>
        <path d="M7,0 L24,0 L24,4 C24,5.1045695 23.1045695,6 22,6 L7,6 L7,6 L7,0 Z" id="Rectangle-Copy" fill="#24B47E" transform="translate(15.500000, 3.000000) scale(1, -1) translate(-15.500000, -3.000000) "></path>
        <rect id="Rectangle" fill="#EAEDED" x="23" y="6" width="1" height="6"></rect>
    </g>
</svg>