<?xml version="1.0" encoding="UTF-8"?>
<svg width="22px" height="21.999985px" viewBox="0 0 22 21.999985" version="1.1" xmlns="http://www.w3.org/2000/svg" xmlns:xlink="http://www.w3.org/1999/xlink">
    <title>social_instagram</title>
    <g id="Page-1" stroke="none" stroke-width="1" fill="none" fill-rule="evenodd">
        <g id="social_instagram" transform="translate(-0, 0)" fill="#FFFFFF">
            <path d="M10.9999888,0 C17.0707812,0 22,4.92261135 22,10.9999738 C22,17.0707662 17.0773812,21.999985 10.9999888,21.999985 C4.92921134,21.999985 1.16573272e-15,17.0773662 1.16573272e-15,10.9999738 C1.16573272e-15,4.92921134 4.92261135,0 10.9999888,0 Z M8.42651697,4.9622038 L13.5734605,4.9622038 C15.5068831,4.9622038 17.0839811,6.52607934 17.0839811,8.42650197 L17.0839811,13.5602455 C17.0839811,15.4672682 15.5068831,17.0245662 13.5734605,17.0245662 L8.42651697,17.0245662 C6.49309438,17.0245662 4.91601135,15.4672682 4.91601135,13.5602455 L4.91601135,8.42650197 C4.91601135,6.51947935 6.49969438,4.9622038 8.42651697,4.9622038 Z M10.9669888,7.74025282 C12.8476114,7.74025282 14.3719095,9.26455092 14.3719095,11.1451736 C14.3719095,13.0257962 12.8476114,14.5500943 10.9669888,14.5500943 C9.08636614,14.5500943 7.56206805,13.0257962 7.56206805,11.1451736 C7.56206805,9.26455092 9.08636614,7.74025282 10.9669888,7.74025282 Z M10.9669888,8.88842639 C12.2075622,8.88842639 13.217136,9.89800013 13.217136,11.1385736 C13.217136,12.379147 12.2075622,13.3887208 10.9669888,13.3887208 C9.71981535,13.3887208 8.7168416,12.379147 8.7168416,11.1385736 C8.7168416,9.89800013 9.72641534,8.88842639 10.9669888,8.88842639 Z M14.2597097,7.26512842 C14.5633093,7.26512842 14.814034,7.50925311 14.814034,7.81945273 C14.814034,8.12297735 14.5698343,8.37370203 14.2597097,8.37370203 C13.9561851,8.37370203 13.7054604,8.12957734 13.7054604,7.81945273 C13.7054604,7.51585311 13.9495851,7.26512842 14.2597097,7.26512842 Z M8.84884144,5.94540757 L13.1511361,5.94540757 C14.767834,5.94540757 16.0875324,7.25852843 16.0875324,8.86862641 L16.0875324,13.197321 C16.0875324,14.807419 14.767834,16.1205923 13.1511361,16.1205923 L8.84884144,16.1205923 C7.23214346,16.1205923 5.91241511,14.807419 5.91241511,13.197321 L5.91241511,8.86862641 C5.91241511,7.25852843 7.23214346,5.94540757 8.84884144,5.94540757 Z" id="Shape"></path>
        </g>
    </g>
</svg>